<svg width="117" height="96" viewBox="0 0 117 96" fill="none" xmlns="http://www.w3.org/2000/svg">
<path d="M92.4952 46.3244C93.162 45.6225 95.0957 44.324 97.4962 44.7452C99.8967 45.1663 102.164 49.8338 102.997 52.115C103.998 55.2734 106.198 61.6957 106.998 62.1168C107.998 62.6432 106.998 64.2225 114 65.8017M103.998 63.1697L113.499 68.9602M93.4954 43.166C94.829 42.4641 95.8032 42.1778 97.9963 42.6395C100.497 43.166 101.997 43.6923 103.497 48.4301C104.998 53.1678 107.917 58.8729 109.499 60.5376C110.999 62.1168 114 63.6961 114.5 63.1697M95.4958 37.3754C96.3293 37.0245 98.3964 36.849 99.9967 38.9547C101.997 41.5867 101.497 40.5339 103.998 45.7981C106.498 51.0622 106.498 53.1679 107.998 54.7471C109.499 56.3263 108.498 56.8528 114.5 60.0112M96.496 34.2169C97.4962 34.2169 102.597 36.6384 102.997 37.9018C104.998 41.692 106.498 46.149 106.998 47.9037C107.832 49.8339 112.099 54.9577 114.5 55.7999M97.4962 31.5849C99.3299 31.7603 103.597 32.8483 105.998 35.7962C106.522 36.4399 106.955 36.9551 107.312 37.3754M116 53.6943C115.166 53.5188 112.999 52.6414 110.999 50.5358C108.498 47.9037 108.999 42.1132 108.999 40.5339C108.999 39.2305 108.999 39.3614 107.312 37.3754M112.499 46.3244C112.333 46.4999 112.199 47.272 112.999 48.9565C113.8 50.6411 114.666 50.7113 115 50.5358M96.9961 26.3207C98.3297 27.0226 101.497 29.0581 103.497 31.5849C105.498 34.1117 106.874 36.4981 107.312 37.3754M97.4962 22.6358C98.4964 22.4603 100.997 22.7411 102.997 25.2679C105.498 28.4264 104.998 31.0584 106.998 32.6377C108.999 34.2169 111.499 37.3754 111.499 39.4811C111.499 41.1656 111.832 43.6923 111.999 44.7452M95.9959 18.9509C97.3295 18.9509 100.497 19.1615 102.497 20.0037C104.998 21.0566 107.998 25.7943 108.498 27.3735C108.999 28.9528 110.999 31.5849 112.499 33.6905C113.399 34.9539 113.418 36.8627 114.5 43.6924C115.5 50.0094 115 47.3773 116 48.9565" stroke="black"/>
<path d="M97.9964 28.9528C97.9964 44.6742 85.4505 57.4056 69.9906 57.4056C54.5307 57.4056 41.9847 44.6742 41.9847 28.9528C41.9847 13.2314 54.5307 0.5 69.9906 0.5C85.4505 0.5 97.9964 13.2314 97.9964 28.9528Z" fill="black" stroke="black"/>
<path d="M74.4915 63.6961C74.4915 64.9244 74.7916 67.8022 75.9918 69.4867C77.1921 71.1712 79.1591 73.698 79.9926 74.7508M88.9945 77.9093C89.4946 77.5584 92.2952 78.1199 93.4954 78.9622C94.6957 79.8044 95.6625 81.4188 95.9959 82.1206M74.4915 58.9584C75.325 59.8358 76.892 62.0116 76.4919 63.6961C76.0918 65.3807 79.1591 70.0131 80.4927 72.1188C82.1598 73.8735 86.794 77.2776 87.9943 76.8565M77.4921 58.9584C77.8255 58.9584 78.5924 59.5901 78.9924 62.1169C79.4925 65.2754 79.9926 68.4339 81.9931 69.4867C83.9935 70.5395 87.9943 72.6452 88.4944 73.1716C88.9945 73.698 91.9951 74.2244 94.4956 76.3301C96.496 78.0146 99.3299 80.8923 100.497 82.1206M78.9924 55.7999C79.8259 56.8527 81.3929 59.2743 80.9928 60.5376C80.4927 62.1169 81.9931 66.3282 82.4932 66.8546C82.9933 67.381 86.5468 69.7777 86.9941 70.0131C87.9943 70.5395 92.6008 72.1743 93.4954 72.6452C94.4956 73.1716 97.4962 73.698 100.497 77.9093M82.9933 55.7999C83.6601 56.5018 85.0937 58.5373 85.4938 61.0641C85.9939 64.2225 86.9941 66.3282 87.9943 67.381C88.9945 68.4339 91.495 70.0131 91.9951 70.0131M84.4936 53.6943C85.1604 54.2207 85.6453 55.9594 86.494 56.8527C87.9943 58.432 88.3235 61.2308 88.9945 62.6433C89.9947 64.749 91.2796 66.1771 92.9953 67.381C94.4956 68.4339 95.4958 68.9603 97.9963 68.9603C100.497 68.9603 100.997 68.4339 102.497 70.0131C103.998 71.5923 103.497 73.1716 105.498 74.2244C107.498 75.2772 111.999 75.8037 111.999 75.2772M93.9955 71.0659C94.9957 70.715 97.4962 70.5395 98.9965 71.0659C100.707 71.6661 100.048 71.174 100.997 73.1716C101.997 75.2772 101.997 75.2772 103.497 76.3301C104.698 77.1723 107.998 77.3829 109.499 77.3829M104.998 69.4867C105.498 70.715 106.798 73.1716 107.998 73.1716C109.199 73.1716 111.499 73.1716 112.499 73.1716M112.999 71.0659C112.499 71.0659 111.399 71.0659 110.999 71.0659C110.499 71.0659 107.498 70.0131 106.998 68.4339C106.498 66.8546 103.998 64.2225 101.497 63.6961C98.9965 63.1697 96.496 64.2225 93.4954 60.0112C90.4948 55.7999 90.9949 55.7999 90.9949 54.7471C90.9949 53.6943 89.9947 53.6943 89.9947 51.0622C89.9947 48.9565 90.6615 47.3773 90.9949 46.8509M88.4944 53.6943C88.6611 55.7999 89.6946 59.8007 90.4948 61.0641C91.495 62.6433 91.9951 64.2225 94.9957 65.2754C97.9963 66.3282 101.497 66.8546 103.497 67.9074M98.9965 55.2735C98.8298 54.2207 98.2964 52.0097 97.4962 51.5886C96.496 51.0622 95.9959 50.0094 94.4956 51.5886C92.9953 53.1678 94.9957 55.2735 95.4958 55.7999C95.9959 56.3263 98.9965 60.0112 99.9967 59.4848C100.997 58.9584 101.997 59.4848 100.497 56.3263M97.9963 48.9565C97.9963 48.4301 97.4962 47.4826 95.4958 47.9037C92.9953 48.4301 92.4952 50.5358 92.4952 51.5886C92.4952 52.6414 92.4952 54.7471 93.9955 56.8527C95.4958 58.9584 98.9965 63.1697 101.497 61.5905C103.998 60.0112 103.497 59.4848 103.497 57.9056C103.497 57.1611 101.997 53.6943 100.497 52.115C99.2966 50.8516 98.6631 50.1848 98.4964 50.0094" stroke="black"/>
<path d="M95.996 28.9528C95.996 43.51 84.347 55.2999 69.9906 55.2999C55.6342 55.2999 43.9852 43.51 43.9852 28.9528C43.9852 14.3956 55.6342 2.60565 69.9906 2.60565C84.347 2.60565 95.996 14.3956 95.996 28.9528Z" fill="white" stroke="black"/>
<path d="M94.4956 36.849C93.9955 36.1471 92.4952 35.0592 90.4948 36.3226C87.9943 37.9019 84.9936 38.4283 84.4935 42.6396C84.0935 46.0086 85.6604 48.9566 86.494 50.0094M95.9959 29.4792C94.1622 28.6019 89.7946 27.6894 86.9941 31.0585C83.4933 35.2698 80.9928 33.6905 80.4927 39.4811C79.9926 45.2717 80.4927 47.3773 81.4929 48.9566C82.2931 50.22 83.1599 51.5886 83.4933 52.115M95.9959 24.7415C95.3291 23.3377 94.4956 22.6358 91.495 23.6887C87.7895 24.9888 86.9941 24.2151 82.9932 27.9C78.9924 31.5849 77.5476 31.4096 75.4917 37.9019C73.4913 44.2188 76.4919 47.3773 76.992 48.9566C78.4674 53.6157 78.9924 54.2207 78.9924 54.2207M94.4956 20.0038C93.162 18.9509 90.0947 17.1611 88.4944 18.4245C86.494 20.0038 83.4933 17.3717 77.9922 20.5302C73.5913 23.057 71.4909 29.6547 70.9908 32.6377C70.6574 35.2698 69.8906 40.7445 69.4905 41.5867C68.9904 42.6396 70.9908 48.9565 71.4909 50.5358C71.991 52.115 73.4913 55.2735 72.4911 55.7999M79.4925 4.21132C77.6588 4.73773 73.6913 6.31698 72.4911 8.42263C70.9908 11.0547 65.4897 13.6868 63.9893 16.3188C62.489 18.9509 59.84 24.1578 58.9883 26.8471C57.9881 30.0056 56.9879 30.0056 56.9879 36.3226C56.9879 41.3762 57.6547 46.8509 57.9881 48.9566L58.9883 53.6943M85.4937 7.3698H80.9928C78.8257 7.89622 74.2915 9.37018 73.4913 11.0547C72.4911 13.1604 70.4907 14.7396 69.4905 15.7924C68.4903 16.8453 68.9904 20.0037 66.99 21.583C65.3896 22.8464 63.3225 28.0754 62.489 30.532C61.9889 33.1641 61.1888 39.0599 61.9889 41.5867C62.9891 44.7452 64.9896 52.115 65.4897 53.6943C65.8897 54.9577 65.9898 55.6245 65.9898 55.7999M68.4903 55.2735C68.3236 55.098 67.7901 54.0101 66.99 51.0622C65.9898 47.3773 67.4901 40.0075 66.99 38.9547C66.5899 38.1124 66.4899 33.6905 66.4899 31.5849C66.6566 28.7773 67.9902 22.6358 71.991 20.5302C76.992 17.8981 75.4917 16.3188 77.4921 14.7396C79.4925 13.1604 83.9934 11.0547 86.494 12.6339C88.4944 13.8973 90.9949 14.5641 91.9951 14.7396" stroke="black"/>
<line y1="-0.5" x2="7.98285" y2="-0.5" transform="matrix(0.751765 -0.659431 0.62071 0.784041 42.485 52.6414)" stroke="black"/>
<line y1="-0.5" x2="7.98285" y2="-0.5" transform="matrix(-0.751765 0.659431 -0.62071 -0.784041 52.487 51.5886)" stroke="black"/>
<rect x="-0.0599214" y="0.72227" width="13.7563" height="52.96" rx="4.5" transform="matrix(0.62673 0.779237 -0.746572 0.665304 40.8019 48.89)" fill="black" stroke="black"/>
<line y1="-0.5" x2="45.7021" y2="-0.5" transform="matrix(0.744101 -0.668067 0.629566 0.776947 5.47739 84.2263)" stroke="white"/>
<path d="M72.4911 61.5905C72.1577 61.766 71.3909 61.4852 70.9908 58.9584C70.5907 56.4316 71.4909 56.1509 71.991 56.3263" stroke="black"/>
</svg>
