<svg width="124" height="102" viewBox="0 0 124 102" fill="none" xmlns="http://www.w3.org/2000/svg">
<g filter="url(#filter0_d_4_112)">
<path d="M95.4952 46.3244C96.162 45.6225 98.0957 44.324 100.496 44.7452C102.897 45.1663 105.164 49.8338 105.997 52.115C106.998 55.2734 109.198 61.6957 109.998 62.1168C110.998 62.6432 109.998 64.2225 117 65.8017M106.998 63.1697L116.499 68.9602M96.4954 43.166C97.829 42.4641 98.8032 42.1778 100.996 42.6395C103.497 43.166 104.997 43.6923 106.497 48.4301C107.998 53.1678 110.917 58.8729 112.499 60.5376C113.999 62.1168 117 63.6961 117.5 63.1697M98.4958 37.3754C99.3293 37.0245 101.396 36.849 102.997 38.9547C104.997 41.5867 104.497 40.5339 106.998 45.7981C109.498 51.0622 109.498 53.1679 110.998 54.7471C112.499 56.3263 111.498 56.8528 117.5 60.0112M99.496 34.2169C100.496 34.2169 105.597 36.6384 105.997 37.9018C107.998 41.692 109.498 46.149 109.998 47.9037C110.832 49.8339 115.099 54.9577 117.5 55.7999M100.496 31.5849C102.33 31.7603 106.597 32.8483 108.998 35.7962C109.522 36.4399 109.955 36.9551 110.312 37.3754M119 53.6943C118.166 53.5188 115.999 52.6414 113.999 50.5358C111.498 47.9037 111.999 42.1132 111.999 40.5339C111.999 39.2305 111.999 39.3614 110.312 37.3754M115.499 46.3244C115.333 46.4999 115.199 47.272 115.999 48.9565C116.8 50.6411 117.666 50.7113 118 50.5358M99.9961 26.3207C101.33 27.0226 104.497 29.0581 106.497 31.5849C108.498 34.1117 109.874 36.4981 110.312 37.3754M100.496 22.6358C101.496 22.4603 103.997 22.7411 105.997 25.2679C108.498 28.4264 107.998 31.0584 109.998 32.6377C111.999 34.2169 114.499 37.3754 114.499 39.4811C114.499 41.1656 114.832 43.6923 114.999 44.7452M98.9959 18.9509C100.33 18.9509 103.497 19.1615 105.497 20.0037C107.998 21.0566 110.998 25.7943 111.498 27.3735C111.999 28.9528 113.999 31.5849 115.499 33.6905C116.399 34.9539 116.418 36.8627 117.5 43.6924C118.5 50.0094 118 47.3773 119 48.9565" stroke="black"/>
<path d="M100.996 28.9528C100.996 44.6742 88.4505 57.4056 72.9906 57.4056C57.5307 57.4056 44.9847 44.6742 44.9847 28.9528C44.9847 13.2314 57.5307 0.5 72.9906 0.5C88.4505 0.5 100.996 13.2314 100.996 28.9528Z" fill="black" stroke="black"/>
<path d="M77.4915 63.6961C77.4915 64.9244 77.7916 67.8022 78.9918 69.4867C80.1921 71.1712 82.1591 73.698 82.9926 74.7508M91.9945 77.9093C92.4946 77.5584 95.2952 78.1199 96.4954 78.9622C97.6957 79.8044 98.6625 81.4188 98.9959 82.1206M77.4915 58.9584C78.325 59.8358 79.892 62.0116 79.4919 63.6961C79.0918 65.3807 82.1591 70.0131 83.4927 72.1188C85.1598 73.8735 89.794 77.2776 90.9943 76.8565M80.4921 58.9584C80.8255 58.9584 81.5924 59.5901 81.9924 62.1169C82.4925 65.2754 82.9926 68.4339 84.9931 69.4867C86.9935 70.5395 90.9943 72.6452 91.4944 73.1716C91.9945 73.698 94.9951 74.2244 97.4956 76.3301C99.496 78.0146 102.33 80.8923 103.497 82.1206M81.9924 55.7999C82.8259 56.8527 84.3929 59.2743 83.9928 60.5376C83.4927 62.1169 84.9931 66.3282 85.4932 66.8546C85.9933 67.381 89.5468 69.7777 89.9941 70.0131C90.9943 70.5395 95.6008 72.1743 96.4954 72.6452C97.4956 73.1716 100.496 73.698 103.497 77.9093M85.9933 55.7999C86.6601 56.5018 88.0937 58.5373 88.4938 61.0641C88.9939 64.2225 89.9941 66.3282 90.9943 67.381C91.9945 68.4339 94.495 70.0131 94.9951 70.0131M87.4936 53.6943C88.1604 54.2207 88.6453 55.9594 89.494 56.8527C90.9943 58.432 91.3235 61.2308 91.9945 62.6433C92.9947 64.749 94.2796 66.1771 95.9953 67.381C97.4956 68.4339 98.4958 68.9603 100.996 68.9603C103.497 68.9603 103.997 68.4339 105.497 70.0131C106.998 71.5923 106.497 73.1716 108.498 74.2244C110.498 75.2772 114.999 75.8037 114.999 75.2772M96.9955 71.0659C97.9957 70.715 100.496 70.5395 101.997 71.0659C103.707 71.6661 103.048 71.174 103.997 73.1716C104.997 75.2772 104.997 75.2772 106.497 76.3301C107.698 77.1723 110.998 77.3829 112.499 77.3829M107.998 69.4867C108.498 70.715 109.798 73.1716 110.998 73.1716C112.199 73.1716 114.499 73.1716 115.499 73.1716M115.999 71.0659C115.499 71.0659 114.399 71.0659 113.999 71.0659C113.499 71.0659 110.498 70.0131 109.998 68.4339C109.498 66.8546 106.998 64.2225 104.497 63.6961C101.997 63.1697 99.496 64.2225 96.4954 60.0112C93.4948 55.7999 93.9949 55.7999 93.9949 54.7471C93.9949 53.6943 92.9947 53.6943 92.9947 51.0622C92.9947 48.9565 93.6615 47.3773 93.9949 46.8509M91.4944 53.6943C91.6611 55.7999 92.6946 59.8007 93.4948 61.0641C94.495 62.6433 94.9951 64.2225 97.9957 65.2754C100.996 66.3282 104.497 66.8546 106.497 67.9074M101.997 55.2735C101.83 54.2207 101.296 52.0097 100.496 51.5886C99.496 51.0622 98.9959 50.0094 97.4956 51.5886C95.9953 53.1678 97.9957 55.2735 98.4958 55.7999C98.9959 56.3263 101.997 60.0112 102.997 59.4848C103.997 58.9584 104.997 59.4848 103.497 56.3263M100.996 48.9565C100.996 48.4301 100.496 47.4826 98.4958 47.9037C95.9953 48.4301 95.4952 50.5358 95.4952 51.5886C95.4952 52.6414 95.4952 54.7471 96.9955 56.8527C98.4958 58.9584 101.997 63.1697 104.497 61.5905C106.998 60.0112 106.497 59.4848 106.497 57.9056C106.497 57.1611 104.997 53.6943 103.497 52.115C102.297 50.8516 101.663 50.1848 101.496 50.0094" stroke="black"/>
<path d="M98.996 28.9528C98.996 43.51 87.347 55.2999 72.9906 55.2999C58.6342 55.2999 46.9852 43.51 46.9852 28.9528C46.9852 14.3956 58.6342 2.60565 72.9906 2.60565C87.347 2.60565 98.996 14.3956 98.996 28.9528Z" fill="white" stroke="black"/>
<path d="M97.4956 36.849C96.9955 36.1471 95.4952 35.0592 93.4948 36.3226C90.9943 37.9019 87.9936 38.4283 87.4935 42.6396C87.0935 46.0086 88.6604 48.9566 89.494 50.0094M98.9959 29.4792C97.1622 28.6019 92.7946 27.6894 89.9941 31.0585C86.4933 35.2698 83.9928 33.6905 83.4927 39.4811C82.9926 45.2717 83.4927 47.3773 84.4929 48.9566C85.2931 50.22 86.1599 51.5886 86.4933 52.115M98.9959 24.7415C98.3291 23.3377 97.4956 22.6358 94.495 23.6887C90.7895 24.9888 89.9941 24.2151 85.9932 27.9C81.9924 31.5849 80.5476 31.4096 78.4917 37.9019C76.4913 44.2188 79.4919 47.3773 79.992 48.9566C81.4674 53.6157 81.9924 54.2207 81.9924 54.2207M97.4956 20.0038C96.162 18.9509 93.0947 17.1611 91.4944 18.4245C89.494 20.0038 86.4933 17.3717 80.9922 20.5302C76.5913 23.057 74.4909 29.6547 73.9908 32.6377C73.6574 35.2698 72.8906 40.7445 72.4905 41.5867C71.9904 42.6396 73.9908 48.9565 74.4909 50.5358C74.991 52.115 76.4913 55.2735 75.4911 55.7999M82.4925 4.21132C80.6588 4.73773 76.6913 6.31698 75.4911 8.42263C73.9908 11.0547 68.4897 13.6868 66.9893 16.3188C65.489 18.9509 62.84 24.1578 61.9883 26.8471C60.9881 30.0056 59.9879 30.0056 59.9879 36.3226C59.9879 41.3762 60.6547 46.8509 60.9881 48.9566L61.9883 53.6943M88.4937 7.3698H83.9928C81.8257 7.89622 77.2915 9.37018 76.4913 11.0547C75.4911 13.1604 73.4907 14.7396 72.4905 15.7924C71.4903 16.8453 71.9904 20.0037 69.99 21.583C68.3896 22.8464 66.3225 28.0754 65.489 30.532C64.9889 33.1641 64.1888 39.0599 64.9889 41.5867C65.9891 44.7452 67.9896 52.115 68.4897 53.6943C68.8897 54.9577 68.9898 55.6245 68.9898 55.7999M71.4903 55.2735C71.3236 55.098 70.7901 54.0101 69.99 51.0622C68.9898 47.3773 70.4901 40.0075 69.99 38.9547C69.5899 38.1124 69.4899 33.6905 69.4899 31.5849C69.6566 28.7773 70.9902 22.6358 74.991 20.5302C79.992 17.8981 78.4917 16.3188 80.4921 14.7396C82.4925 13.1604 86.9934 11.0547 89.494 12.6339C91.4944 13.8973 93.9949 14.5641 94.9951 14.7396" stroke="black"/>
<line y1="-0.5" x2="7.98285" y2="-0.5" transform="matrix(0.751765 -0.659431 0.62071 0.784041 45.485 52.6414)" stroke="black"/>
<line y1="-0.5" x2="7.98285" y2="-0.5" transform="matrix(-0.751765 0.659431 -0.62071 -0.784041 55.487 51.5886)" stroke="black"/>
<rect x="-0.0599214" y="0.72227" width="13.7563" height="52.96" rx="4.5" transform="matrix(0.62673 0.779237 -0.746572 0.665304 43.8019 48.89)" fill="black" stroke="black"/>
<line y1="-0.5" x2="45.7021" y2="-0.5" transform="matrix(0.744101 -0.668067 0.629566 0.776947 8.47739 84.2263)" stroke="white"/>
<path d="M75.4911 61.5905C75.1577 61.766 74.3909 61.4852 73.9908 58.9584C73.5907 56.4316 74.4909 56.1509 74.991 56.3263" stroke="black"/>
</g>
<defs>
<filter id="filter0_d_4_112" x="-1" y="0" width="124.422" height="104" filterUnits="userSpaceOnUse" color-interpolation-filters="sRGB">
<feFlood flood-opacity="0" result="BackgroundImageFix"/>
<feColorMatrix in="SourceAlpha" type="matrix" values="0 0 0 0 0 0 0 0 0 0 0 0 0 0 0 0 0 0 127 0" result="hardAlpha"/>
<feOffset dy="4"/>
<feGaussianBlur stdDeviation="2"/>
<feComposite in2="hardAlpha" operator="out"/>
<feColorMatrix type="matrix" values="0 0 0 0 0 0 0 0 0 0 0 0 0 0 0 0 0 0 0.25 0"/>
<feBlend mode="normal" in2="BackgroundImageFix" result="effect1_dropShadow_4_112"/>
<feBlend mode="normal" in="SourceGraphic" in2="effect1_dropShadow_4_112" result="shape"/>
</filter>
</defs>
</svg>
