<svg width="158" height="139" viewBox="0 0 158 139" fill="none" xmlns="http://www.w3.org/2000/svg">
<g filter="url(#filter0_d_165_966)">
<path d="M122.619 67.9404C123.452 67.0777 125.87 65.4816 128.87 65.9992C131.871 66.5169 134.705 72.2541 135.747 75.058C136.997 78.9403 139.747 86.8343 140.748 87.3519C141.998 87.999 140.748 89.9401 149.499 91.8813M136.997 88.646L148.874 95.7636M123.869 64.0582C125.536 63.1954 126.754 62.8436 129.495 63.4111C132.621 64.0582 134.496 64.7052 136.372 70.5286C138.247 76.3521 141.897 83.3647 143.873 85.4108C145.749 87.3519 149.499 89.2931 150.125 88.6461M126.37 56.9406C127.412 56.5092 129.995 56.2936 131.996 58.8818C134.496 62.117 133.871 60.8229 136.997 67.2934C140.123 73.7639 140.123 76.3521 141.998 78.2933C143.873 80.2345 142.623 80.8816 150.125 84.7638M127.62 53.0583C128.87 53.0583 135.247 56.0347 135.747 57.5877C138.247 62.2464 140.123 67.7248 140.748 69.8816C141.79 72.2542 147.124 78.5521 150.125 79.5874M128.87 49.8231C131.162 50.0387 136.497 51.376 139.497 54.9995C140.153 55.7907 140.693 56.4239 141.14 56.9406M152 76.9992C150.958 76.7835 148.249 75.7051 145.749 73.1169C142.623 69.8816 143.248 62.7641 143.248 60.8229C143.248 59.2209 143.248 59.3817 141.14 56.9406M147.624 67.9404C147.416 68.1561 147.249 69.1052 148.249 71.1757C149.249 73.2463 150.333 73.3326 150.75 73.1169M128.245 43.3525C129.912 44.2153 133.871 46.7172 136.372 49.8231C138.872 52.9289 140.592 55.8622 141.14 56.9406M128.87 38.8232C130.121 38.6075 133.246 38.9526 135.747 42.0584C138.872 45.9407 138.247 49.176 140.748 51.1171C143.248 53.0583 146.374 56.9406 146.374 59.5288C146.374 61.5994 146.791 64.7052 146.999 65.9992M126.995 34.2938C128.662 34.2938 132.621 34.5526 135.122 35.5879C138.247 36.882 141.998 42.7055 142.623 44.6466C143.248 46.5878 145.749 49.823 147.624 52.4113C148.749 53.9642 148.773 56.3104 150.125 64.7052C151.375 72.4698 150.75 69.2346 152 71.1757" stroke="black"/>
<path d="M129.621 46.5878C129.621 65.9657 113.892 81.6756 94.4882 81.6756C75.0846 81.6756 59.3559 65.9657 59.3559 46.5878C59.3559 27.2099 75.0846 11.5 94.4882 11.5C113.892 11.5 129.621 27.2099 129.621 46.5878Z" fill="black" stroke="black"/>
<path d="M100.114 89.2932C100.114 90.8029 100.489 94.3402 101.99 96.4107C103.49 98.4813 105.949 101.587 106.991 102.881M118.243 106.764C118.868 106.332 122.369 107.022 123.869 108.058C125.37 109.093 126.578 111.077 126.995 111.94M100.114 83.4697C101.156 84.5481 103.115 87.2226 102.615 89.2932C102.115 91.3637 105.949 97.0578 107.616 99.646C109.7 101.803 115.493 105.987 116.993 105.469M103.865 83.4697C104.282 83.4697 105.24 84.2462 105.741 87.352C106.366 91.2343 106.991 95.1166 109.491 96.4107C111.992 97.7048 116.993 100.293 117.618 100.94C118.243 101.587 121.994 102.234 125.119 104.822C127.62 106.893 131.162 110.43 132.621 111.94M105.741 79.5874C106.782 80.8815 108.741 83.8579 108.241 85.4108C107.616 87.352 109.491 92.5284 110.116 93.1755C110.742 93.8225 115.183 96.7684 115.743 97.0578C116.993 97.7048 122.751 99.7143 123.869 100.293C125.119 100.94 128.87 101.587 132.621 106.764M110.742 79.5874C111.575 80.4501 113.367 82.9521 113.867 86.0579C114.492 89.9402 115.743 92.5284 116.993 93.8225C118.243 95.1166 121.369 97.0578 121.994 97.0578M112.617 76.9992C113.45 77.6462 114.057 79.7834 115.117 80.8815C116.993 82.8226 117.404 86.2628 118.243 87.9991C119.493 90.5873 121.1 92.3426 123.244 93.8225C125.119 95.1166 126.37 95.7637 129.495 95.7637C132.621 95.7637 133.246 95.1166 135.122 97.0578C136.997 98.9989 136.372 100.94 138.872 102.234C141.373 103.528 146.999 104.175 146.999 103.528M124.494 98.3519C125.745 97.9205 128.87 97.7048 130.746 98.3519C132.884 99.0896 132.06 98.4847 133.246 100.94C134.496 103.528 134.496 103.528 136.372 104.822C137.872 105.858 141.998 106.116 143.873 106.116M138.247 96.4107C138.872 97.9205 140.498 100.94 141.998 100.94C143.498 100.94 146.374 100.94 147.624 100.94M148.249 98.3519C147.624 98.3519 146.249 98.3519 145.749 98.3519C145.124 98.3519 141.373 97.0578 140.748 95.1166C140.123 93.1755 136.997 89.9402 133.871 89.2932C130.746 88.6461 127.62 89.9402 123.869 84.7638C120.118 79.5874 120.744 79.5874 120.744 78.2933C120.744 76.9992 119.493 76.9992 119.493 73.7639C119.493 71.1757 120.327 69.2346 120.744 68.5875M117.618 76.9992C117.826 79.5874 119.118 84.505 120.118 86.0579C121.369 87.9991 121.994 89.9402 125.745 91.2343C129.495 92.5284 133.871 93.1755 136.372 94.4696M130.746 78.9403C130.537 77.6462 129.87 74.9286 128.87 74.411C127.62 73.7639 126.995 72.4698 125.119 74.411C123.244 76.3521 125.745 78.9403 126.37 79.5874C126.995 80.2344 130.746 84.7638 131.996 84.1167C133.246 83.4697 134.496 84.1167 132.621 80.2344M129.495 71.1757C129.495 70.5287 128.87 69.364 126.37 69.8816C123.244 70.5287 122.619 73.1169 122.619 74.411C122.619 75.7051 122.619 78.2933 124.494 80.8815C126.37 83.4697 130.746 88.6461 133.871 86.705C136.997 84.7638 136.372 84.1167 136.372 82.1756C136.372 81.2605 134.496 76.9992 132.621 75.058C131.121 73.5051 130.329 72.6855 130.121 72.4698" stroke="black"/>
<path d="M127.12 46.5878C127.12 64.5349 112.512 79.0874 94.4882 79.0874C76.4643 79.0874 61.8564 64.5349 61.8564 46.5878C61.8564 28.6406 76.4643 14.0882 94.4882 14.0882C112.512 14.0882 127.12 28.6406 127.12 46.5878Z" fill="white" stroke="black"/>
<path d="M125.119 56.2936C124.494 55.4308 122.619 54.0936 120.118 55.6465C116.993 57.5877 113.242 58.2347 112.617 63.4111C112.117 67.5523 114.076 71.1757 115.117 72.4698M126.995 47.2349C124.703 46.1564 119.243 45.0349 115.743 49.176C111.367 54.3524 108.241 52.4113 107.616 59.5288C106.991 66.6464 107.616 69.2346 108.866 71.1757C109.866 72.7287 110.95 74.411 111.367 75.0581M126.995 41.4114C126.161 39.6859 125.119 38.8232 121.369 40.1173C116.737 41.7154 115.743 40.7643 110.742 45.2937C105.741 49.8231 103.935 49.6077 101.365 57.5877C98.8641 65.3523 102.615 69.2346 103.24 71.1757C105.084 76.9026 105.741 77.6462 105.741 77.6462M125.119 35.5879C123.452 34.2938 119.618 32.0939 117.618 33.6468C115.117 35.5879 111.367 32.3526 104.49 36.235C98.9891 39.3408 96.3636 47.4505 95.7385 51.1171C95.3217 54.3524 94.3632 61.0817 93.8631 62.117C93.238 63.4111 95.7385 71.1757 96.3636 73.1169C96.9887 75.0581 98.8641 78.9403 97.6139 79.5874M106.366 16.1764C104.074 16.8234 99.1142 18.7646 97.6139 21.3528C95.7385 24.5881 88.8621 27.8233 86.9867 31.0586C85.1113 34.2938 81.8 40.6939 80.7354 43.9996C79.4851 47.8819 78.2349 47.8819 78.2349 55.6465C78.2349 61.8582 79.0684 68.5875 79.4851 71.1757L80.7354 76.9992M113.867 20.0587H108.241C105.532 20.7057 99.8643 22.5175 98.8641 24.5881C97.6139 27.1763 95.1133 29.1174 93.8631 30.4115C92.6128 31.7056 93.238 35.5879 90.7375 37.5291C88.737 39.082 86.1532 45.5094 85.1113 48.5289C84.4862 51.7642 83.486 59.0112 84.4862 62.117C85.7364 65.9993 88.2369 75.058 88.8621 76.9992C89.3622 78.5521 89.4872 79.3717 89.4872 79.5874M92.6128 78.9403C92.4045 78.7246 91.7377 77.3874 90.7375 73.7639C89.4872 69.2346 91.3626 60.1758 90.7375 58.8818C90.2374 57.8465 90.1123 52.4112 90.1123 49.823C90.3207 46.3721 91.9877 38.8232 96.9887 36.235C103.24 32.9997 101.365 31.0586 103.865 29.1174C106.366 27.1763 111.992 24.5881 115.117 26.5292C117.618 28.0821 120.744 28.9017 121.994 29.1174" stroke="black"/>
<line y1="-0.5" x2="9.90659" y2="-0.5" transform="matrix(0.757227 -0.653152 0.627114 0.778928 60.1062 75.7051)" stroke="black"/>
<line y1="-0.5" x2="9.90659" y2="-0.5" transform="matrix(-0.757227 0.653152 -0.627114 -0.778928 72.6087 74.411)" stroke="black"/>
<rect x="-0.0594896" y="0.716556" width="17.2593" height="65.9547" rx="4.5" transform="matrix(0.633116 0.774057 -0.752095 0.659055 57.8734 71.0297)" fill="black" stroke="black"/>
<line y1="-0.5" x2="56.7046" y2="-0.5" transform="matrix(0.749652 -0.661833 0.635943 0.771736 13.8467 114.528)" stroke="white"/>
<path d="M97.6139 86.705C97.1971 86.9207 96.2386 86.5756 95.7385 83.4697C95.2384 80.3639 96.3636 80.0188 96.9887 80.2345" stroke="black"/>
</g>
<defs>
<filter id="filter0_d_165_966" x="3" y="11" width="153.42" height="126" filterUnits="userSpaceOnUse" color-interpolation-filters="sRGB">
<feFlood flood-opacity="0" result="BackgroundImageFix"/>
<feColorMatrix in="SourceAlpha" type="matrix" values="0 0 0 0 0 0 0 0 0 0 0 0 0 0 0 0 0 0 127 0" result="hardAlpha"/>
<feOffset dy="4"/>
<feGaussianBlur stdDeviation="2"/>
<feComposite in2="hardAlpha" operator="out"/>
<feColorMatrix type="matrix" values="0 0 0 0 0 0 0 0 0 0 0 0 0 0 0 0 0 0 0.25 0"/>
<feBlend mode="normal" in2="BackgroundImageFix" result="effect1_dropShadow_165_966"/>
<feBlend mode="normal" in="SourceGraphic" in2="effect1_dropShadow_165_966" result="shape"/>
</filter>
</defs>
</svg>
