<svg width="94" height="105" viewBox="0 0 94 105" fill="none" xmlns="http://www.w3.org/2000/svg">
<g filter="url(#filter0_d_2_29)">
<path d="M30.4194 13.6576V20.5139C31.2232 18.2285 33.3132 13.3412 35.2424 12.0754C37.6538 10.4932 39.1007 10.4932 42.4768 8.91102C45.1777 7.64526 46.1744 11.548 46.3352 13.6576V20.5139L42.4768 25.2605C41.5122 28.2491 39.1007 34.9647 37.1715 37.9181C35.7206 40.1394 35.9975 42.1022 36.5659 43.3128C36.8193 43.8523 36.7544 44.5604 36.3293 44.9783C35.2371 46.0517 33.7206 47.9813 32.8309 50.5757C31.384 54.795 31.384 57.9594 30.4194 59.5416C29.4548 61.1238 30.4194 65.343 28.4902 66.9252L26.0644 68.9147C25.2427 69.5886 25.0433 70.7645 25.5964 71.6718L23.1849 75.3636C17.7189 75.7152 6.49742 76.7349 5.33991 78.0006C3.89302 79.5828 7.2691 83.802 11.6098 86.9665C14.8736 89.3458 21.8017 92.2222 25.0254 93.5811C25.4054 93.7413 25.8008 93.8548 26.2084 93.9176C32.0298 94.8147 43.0516 96.3394 48.2644 95.9323C55.0166 95.4049 58.8749 94.3501 59.8395 93.8227C60.8041 93.2953 71.897 88.0213 74.3085 86.9665C76.7199 85.9117 85.4013 83.2746 87.8128 80.6376C90.2243 78.0006 88.2951 76.9458 87.8128 75.3636C87.3305 73.7814 71.4147 73.7814 70.9324 71.6718C70.4501 69.5622 68.0386 71.6718 67.5563 70.0896C67.4243 69.6568 67.5142 69.0882 67.7218 68.4853C68.4244 66.4446 68.6666 64.1329 67.2855 62.4744C66.9155 62.0301 66.5193 61.572 66.1094 61.1238C64.1802 59.0142 66.5917 54.795 66.1094 50.5757C65.6271 46.3565 63.6979 43.7195 62.251 38.9729C60.8041 34.2263 59.8395 28.9523 58.8749 26.8427C57.9103 24.7331 61.7687 17.3494 62.251 15.2398C62.7333 13.1302 58.8749 8.91102 56.4634 7.32882C54.5343 6.06306 54.052 4.34021 54.052 3.63701C53.7304 2.75801 51.2546 1 43.9237 1C34.7601 1 37.1715 6.27402 34.2778 7.32882C31.9627 8.17266 30.7409 11.8996 30.4194 13.6576Z" fill="black" stroke="black"/>
<path d="M31.4482 19.2296C31.3869 18.7772 30.7772 18.6746 30.5944 19.0861L28.4217 23.9763L23.6799 23.1791C23.2646 23.1093 23.0035 23.5993 23.2853 23.9196L26.7146 27.8188L24.5076 32.7862C24.3293 33.1876 24.7784 33.5937 25.1531 33.3699L29.3779 30.8471L32.7147 34.6411C33.0107 34.9776 33.5505 34.7378 33.4907 34.2964L32.7501 28.8335L37.0921 26.2407C37.4488 26.0277 37.3344 25.4746 36.9191 25.4048L32.1773 24.6077L31.4482 19.2296ZM28.4065 24.0106C28.4065 24.0105 28.4066 24.0105 28.4066 24.0104L28.4065 24.0106Z" fill="white" stroke="black" stroke-width="0.5"/>
<path d="M53.5215 62.1657C53.6531 62.0282 53.8805 62.1586 53.8518 62.3552L53.3104 66.074C53.2976 66.1618 53.3401 66.2508 53.4155 66.294L56.5741 68.1062C56.7416 68.2023 56.7052 68.4649 56.5208 68.4908L53.0216 68.9812C52.9396 68.9927 52.8758 69.0589 52.8632 69.1457L52.3206 72.8724C52.2921 73.0684 52.0422 73.1003 51.9565 72.9189L50.3426 69.5036C50.3039 69.4216 50.2205 69.3738 50.1369 69.3855L46.6499 69.8743C46.4646 69.9003 46.3466 69.6573 46.4779 69.5202L48.9737 66.9142C49.0319 66.8535 49.0454 66.7585 49.0075 66.6782L47.388 63.251C47.3027 63.0704 47.4795 62.8884 47.647 62.9845L50.8056 64.7967C50.881 64.8399 50.9721 64.8276 51.0309 64.7662L53.5215 62.1657Z" fill="white"/>
<path d="M59.578 43.1731L59.8246 43.1848L59.578 43.1731L59.189 47.9189L54.673 49.1647C54.2532 49.2805 54.2033 49.8712 54.6 50.0279L58.8777 51.7173L58.4885 56.4662C58.4524 56.9062 58.9881 57.1151 59.2699 56.7708L62.2997 53.0687L66.5729 54.7563C66.9703 54.9133 67.3513 54.4516 67.1287 54.0829L64.7261 50.104L67.7592 46.398C68.0405 46.0543 67.7403 45.5601 67.3206 45.6759L62.8045 46.9216L60.4035 42.9454C60.1807 42.5763 59.6141 42.7326 59.578 43.1731ZM62.3233 53.0399C62.3233 53.04 62.3233 53.04 62.3232 53.04L62.3233 53.0399Z" fill="white" stroke="black" stroke-width="0.5"/>
<path d="M31.3172 59.9245L31.2396 59.6804L31.3172 59.9245L35.3701 58.7137L38.0033 62.2938C38.2672 62.6525 38.808 62.4743 38.7949 62.033L38.6673 57.7288L42.6908 56.5268C43.1012 56.4042 43.093 55.8028 42.6789 55.6561L38.5625 54.1974L38.4343 49.8734C38.4213 49.4351 37.8756 49.2417 37.6299 49.5884L35.2069 53.0083L31.0905 51.5496C30.6764 51.4029 30.3472 51.8847 30.6138 52.2472L30.797 52.1074L30.6138 52.2472L33.2279 55.8013L30.8159 59.2056C30.5686 59.5546 30.9111 60.0458 31.3172 59.9245Z" fill="white" stroke="black" stroke-width="0.5"/>
<path d="M47.4597 33.5759C47.393 33.1399 46.8143 33.0306 46.6178 33.4169L45.4331 35.746L42.8623 35.2606C42.435 35.1799 42.1696 35.6948 42.4739 36.014L44.3148 37.9446L43.1272 40.2793C42.9311 40.6648 43.3458 41.0924 43.7317 40.9027L46.049 39.7635L47.8827 41.6866C48.1881 42.0069 48.7098 41.7561 48.6433 41.321L48.2406 38.686L50.567 37.5423C50.9516 37.3533 50.8594 36.7708 50.4322 36.6901L47.8614 36.2046L47.4597 33.5759ZM48.2088 38.7017L48.2088 38.7016L48.2088 38.7017Z" fill="white" stroke="black" stroke-width="0.5"/>
<path d="M42.9309 21.8502C42.6231 21.5621 42.1342 21.8727 42.2106 22.3078L42.4609 23.7338L41.244 24.5069C40.8733 24.7424 40.9871 25.3371 41.4088 25.3681L42.7654 25.468L43.0125 26.875C43.0894 27.313 43.6488 27.3698 43.8311 26.9581L44.4365 25.591L45.8224 25.693C46.2399 25.7238 46.4718 25.1643 46.1619 24.8742L45.1666 23.9426L45.7592 22.6044C45.9435 22.1884 45.5274 21.7857 45.1567 22.0212L43.9397 22.7944L42.9309 21.8502ZM44.4513 25.5576C44.4513 25.5577 44.4513 25.5577 44.4513 25.5577L44.4513 25.5576ZM45.151 23.9779L45.151 23.9777L45.151 23.9779Z" fill="white" stroke="black" stroke-width="0.5"/>
<path d="M57.8665 16.1945C57.6946 15.7842 57.0922 15.8607 57.0108 16.3031L56.4065 19.5868L53.3324 19.977C52.9094 20.0307 52.7804 20.5891 53.1398 20.8104L55.8718 22.4923L55.2576 25.83C55.1775 26.265 55.7003 26.534 56.0135 26.2189L58.2574 23.9609L60.9146 25.5968C61.2854 25.8251 61.738 25.4322 61.569 25.0288L60.2718 21.9337L62.5788 19.6122C62.8824 19.3067 62.6398 18.7955 62.2168 18.8492L59.1427 19.2395L57.8665 16.1945ZM55.878 22.4588L55.8779 22.4589L55.878 22.4588ZM60.2588 21.9027C60.2588 21.9027 60.2588 21.9028 60.2589 21.9028L60.2588 21.9027Z" fill="white" stroke="black" stroke-width="0.5"/>
</g>
<defs>
<filter id="filter0_d_2_29" x="0.50042" y="0.5" width="92.9996" height="104" filterUnits="userSpaceOnUse" color-interpolation-filters="sRGB">
<feFlood flood-opacity="0" result="BackgroundImageFix"/>
<feColorMatrix in="SourceAlpha" type="matrix" values="0 0 0 0 0 0 0 0 0 0 0 0 0 0 0 0 0 0 127 0" result="hardAlpha"/>
<feOffset dy="4"/>
<feGaussianBlur stdDeviation="2"/>
<feComposite in2="hardAlpha" operator="out"/>
<feColorMatrix type="matrix" values="0 0 0 0 0 0 0 0 0 0 0 0 0 0 0 0 0 0 0.25 0"/>
<feBlend mode="normal" in2="BackgroundImageFix" result="effect1_dropShadow_2_29"/>
<feBlend mode="normal" in="SourceGraphic" in2="effect1_dropShadow_2_29" result="shape"/>
</filter>
</defs>
</svg>
