<svg width="135" height="141" viewBox="0 0 135 141" fill="none" xmlns="http://www.w3.org/2000/svg">
<g filter="url(#filter0_d_36_202)">
<path d="M42.8265 18.4542V27.9086C44.0226 24.7571 47.1327 18.0179 50.0035 16.2724C53.592 14.0907 55.7451 14.0907 60.7691 11.9089C64.7882 10.1635 66.2715 15.5452 66.5107 18.4542V27.9086L60.7691 34.4539C59.3337 38.575 55.7451 47.8355 52.8743 51.9081C50.5669 55.1815 51.1959 58.0477 52.1527 59.676C52.4698 60.2156 52.399 60.9647 51.9253 61.3737C50.2889 62.7865 47.8238 65.5555 46.415 69.3623C44.2619 75.1804 44.2619 79.544 42.8265 81.7257C41.391 83.9075 42.8265 89.7256 39.9556 91.9074L36.2927 94.6911C35.1222 95.5807 34.8414 97.2245 35.6494 98.4527L32.0609 103.544C23.9269 104.028 7.22831 105.434 5.50582 107.18C3.3527 109.362 8.37664 115.18 14.836 119.543C19.8009 122.897 30.4639 126.967 35.1115 128.786C35.4714 128.927 35.8374 129.025 36.2199 129.08C44.7869 130.309 61.5216 132.476 69.3815 131.907C79.4294 131.179 85.171 129.725 86.6064 128.998C88.0419 128.27 104.549 120.998 108.138 119.543C111.726 118.089 124.645 114.452 128.233 110.816C131.822 107.18 128.951 105.725 128.233 103.544C127.516 101.362 103.831 101.362 103.114 98.4527C102.396 95.5437 98.8074 98.4527 98.0897 96.2709C97.8095 95.419 98.2017 94.186 98.8159 92.9777C99.855 90.933 100.003 88.4308 98.5029 86.6959C97.7374 85.8108 96.8602 84.8435 95.9366 83.9075C93.0658 80.9985 96.6543 75.1804 95.9366 69.3623C95.2189 63.5443 92.3481 59.908 90.195 53.3626C88.0419 46.8173 86.6064 39.5447 85.171 36.6357C83.7356 33.7267 89.4773 23.545 90.195 20.636C90.9127 17.727 85.171 11.9089 81.5825 9.72711C78.7117 7.98169 77.994 5.60597 77.994 4.63629C77.5155 3.4242 73.8313 1 62.9222 1C49.2858 1 52.8743 8.27259 48.5681 9.72711C45.1231 10.8907 43.3049 16.03 42.8265 18.4542Z" fill="black" stroke="black"/>
<path d="M44.1907 25.82C44.1263 25.3799 43.532 25.2873 43.3401 25.6875L39.9338 32.792L32.5498 31.6417C32.1259 31.5757 31.8609 32.0843 32.1569 32.3961L37.4498 37.973L34.0265 45.113C33.8371 45.5082 34.2676 45.9154 34.6508 45.7034L41.2966 42.026L46.5455 47.5564C46.8481 47.8752 47.3795 47.6179 47.3159 47.1833L46.1672 39.331L52.8689 35.6227C53.2436 35.4154 53.1417 34.8496 52.7177 34.7835L45.3337 33.6332L44.1907 25.82Z" fill="white" stroke="black" stroke-width="0.5"/>
<path d="M77.4048 85.1505C77.5423 85.0174 77.7696 85.1383 77.7397 85.3285L76.881 90.7942C76.8676 90.8795 76.9097 90.9641 76.9857 91.0045L81.9763 93.6578C82.1486 93.7494 82.1035 94.0096 81.911 94.0346L76.4033 94.75C76.3161 94.7613 76.247 94.829 76.2333 94.9166L75.3772 100.365C75.3472 100.556 75.0919 100.596 75.0037 100.423L72.4416 95.3992C72.403 95.3234 72.3215 95.2801 72.2381 95.291L66.7025 96.0099C66.5118 96.0347 66.3992 95.7992 66.5376 95.6653L70.4752 91.8553C70.5385 91.7941 70.5542 91.698 70.5139 91.6189L67.9648 86.6202C67.8757 86.4454 68.0614 86.2599 68.2337 86.3515L73.2243 89.0048C73.3003 89.0451 73.393 89.0322 73.4546 88.9726L77.4048 85.1505Z" fill="white"/>
<path d="M87.1847 58.6559C86.9518 58.2985 86.3984 58.44 86.3606 58.8666L85.7501 65.7694L78.6893 67.5743C78.2604 67.6839 78.2274 68.2827 78.6419 68.4344L85.2989 70.8706L84.6918 77.7345C84.6536 78.1672 85.1872 78.3955 85.475 78.0697L90.2371 72.6778L96.9532 75.1357C97.3592 75.2842 97.7221 74.8267 97.4858 74.4642L93.7385 68.7134L98.4586 63.369C98.7525 63.0363 98.4431 62.525 98.0143 62.6346L90.9534 64.4394L87.1847 58.6559ZM85.747 65.805C85.747 65.8049 85.747 65.8049 85.747 65.8048L85.747 65.805L85.7967 65.8091L85.747 65.805ZM90.9728 64.4692L90.9727 64.4691C90.9728 64.4691 90.9728 64.4692 90.9728 64.4692L90.931 64.4968L90.9728 64.4692Z" fill="white" stroke="black" stroke-width="0.5"/>
<path d="M54.6279 68.11C54.6143 67.686 54.0788 67.5102 53.8224 67.8455L50.0059 72.837L43.5412 70.7141C43.1175 70.575 42.7756 71.072 43.0538 71.4226L47.1457 76.5778L43.3645 81.523C43.1025 81.8657 43.4277 82.349 43.843 82.234L50.2316 80.4655L54.3823 85.6948C54.6521 86.0347 55.1952 85.8366 55.1814 85.4033L54.9812 79.1507L61.2793 77.4073C61.7076 77.2887 61.7183 76.6829 61.2946 76.5438L54.8299 74.421L54.6279 68.11ZM50.2634 80.4567C50.2633 80.4567 50.2632 80.4568 50.2632 80.4568L50.2634 80.4567ZM50.2111 80.4397C50.211 80.4396 50.211 80.4396 50.2109 80.4395L50.2111 80.4397ZM54.9437 79.1611L54.9438 79.1611L54.9437 79.1611Z" fill="white" stroke="black" stroke-width="0.5"/>
<path d="M60.6836 49.059L60.8475 48.8899L60.6836 49.059L63.6441 51.9362L61.7258 55.4309C61.5175 55.8104 61.914 56.2385 62.3077 56.0591L66.1059 54.3288L69.1115 57.2498C69.423 57.5525 69.9383 57.284 69.8676 56.8557L69.2171 52.9115L72.9585 51.2071C73.3604 51.024 73.2825 50.4297 72.8465 50.3534L68.6749 49.6234L68.018 45.6409C67.9484 45.2186 67.3856 45.1201 67.1801 45.4943L65.2432 49.0229L61.0716 48.2929C60.6356 48.2166 60.3655 48.7499 60.6836 49.059ZM69.2109 52.8738C69.2109 52.8738 69.2109 52.8739 69.2109 52.8739L69.2109 52.8738ZM68.6807 49.6586L68.6806 49.6584C68.6806 49.6585 68.6806 49.6586 68.6807 49.6586L68.6314 49.6666L68.6807 49.6586Z" fill="white" stroke="black" stroke-width="0.5"/>
<path d="M61.1645 29.6582C60.8434 29.3797 60.3522 29.6688 60.4319 30.0895L60.8685 32.3934L58.7531 33.6387C58.3711 33.8635 58.5044 34.4503 58.9442 34.4803L61.2943 34.6406L61.7229 36.9025C61.8038 37.3298 62.3778 37.4028 62.5657 37.0098L63.6221 34.7994L66.0403 34.9643C66.4703 34.9936 66.692 34.4522 66.3658 34.1693L64.639 32.6716L65.6656 30.5235C65.8577 30.1215 65.4207 29.7135 65.0388 29.9384L62.9234 31.1837L61.1645 29.6582ZM63.5884 34.7971L63.5885 34.7971L63.5884 34.7971Z" fill="white" stroke="black" stroke-width="0.5"/>
<path d="M83.4283 21.7066C83.2481 21.3081 82.6625 21.377 82.5772 21.8067L81.6027 26.7135L76.6911 27.2913C76.2596 27.342 76.1418 27.9146 76.5187 28.1296L80.8327 30.5906L79.8566 35.5054C79.7715 35.9339 80.2843 36.2189 80.6039 35.9208L84.2372 32.5328L88.5398 34.9873C88.9184 35.2032 89.3531 34.8068 89.1734 34.4094L87.1122 29.8519L90.7551 26.455C91.0733 26.1582 90.8292 25.6282 90.3977 25.679L85.4862 26.2567L83.4283 21.7066ZM87.0858 29.8765L87.086 29.8764L87.0858 29.8765Z" fill="white" stroke="black" stroke-width="0.5"/>
</g>
<defs>
<filter id="filter0_d_36_202" x="0.500534" y="0.5" width="133.999" height="140" filterUnits="userSpaceOnUse" color-interpolation-filters="sRGB">
<feFlood flood-opacity="0" result="BackgroundImageFix"/>
<feColorMatrix in="SourceAlpha" type="matrix" values="0 0 0 0 0 0 0 0 0 0 0 0 0 0 0 0 0 0 127 0" result="hardAlpha"/>
<feOffset dy="4"/>
<feGaussianBlur stdDeviation="2"/>
<feComposite in2="hardAlpha" operator="out"/>
<feColorMatrix type="matrix" values="0 0 0 0 0 0 0 0 0 0 0 0 0 0 0 0 0 0 0.25 0"/>
<feBlend mode="normal" in2="BackgroundImageFix" result="effect1_dropShadow_36_202"/>
<feBlend mode="normal" in="SourceGraphic" in2="effect1_dropShadow_36_202" result="shape"/>
</filter>
</defs>
</svg>
