<svg width="86" height="97" viewBox="0 0 86 97" fill="none" xmlns="http://www.w3.org/2000/svg">
<path d="M26.4194 13.6576V20.5139C27.2232 18.2285 29.3132 13.3412 31.2424 12.0754C33.6538 10.4932 35.1007 10.4932 38.4768 8.91102C41.1777 7.64526 42.1744 11.548 42.3352 13.6576V20.5139L38.4768 25.2605C37.5122 28.2491 35.1007 34.9647 33.1715 37.9181C31.7206 40.1394 31.9975 42.1022 32.5659 43.3128C32.8193 43.8523 32.7544 44.5604 32.3293 44.9783C31.2371 46.0517 29.7206 47.9813 28.8309 50.5757C27.384 54.795 27.384 57.9594 26.4194 59.5416C25.4548 61.1238 26.4194 65.343 24.4902 66.9252L22.0644 68.9147C21.2427 69.5886 21.0433 70.7645 21.5964 71.6718L19.1849 75.3636C13.7189 75.7152 2.49742 76.7349 1.33991 78.0006C-0.106984 79.5828 3.2691 83.802 7.60978 86.9665C10.8736 89.3458 17.8017 92.2222 21.0254 93.5811C21.4054 93.7413 21.8008 93.8548 22.2084 93.9176C28.0298 94.8147 39.0516 96.3394 44.2644 95.9323C51.0166 95.4049 54.8749 94.3501 55.8395 93.8227C56.8041 93.2953 67.897 88.0213 70.3085 86.9665C72.7199 85.9117 81.4013 83.2746 83.8128 80.6376C86.2243 78.0006 84.2951 76.9458 83.8128 75.3636C83.3305 73.7814 67.4147 73.7814 66.9324 71.6718C66.4501 69.5622 64.0386 71.6718 63.5563 70.0896C63.4243 69.6568 63.5142 69.0882 63.7218 68.4853C64.4244 66.4446 64.6666 64.1329 63.2855 62.4744C62.9155 62.0301 62.5193 61.572 62.1094 61.1238C60.1802 59.0142 62.5917 54.795 62.1094 50.5757C61.6271 46.3565 59.6979 43.7195 58.251 38.9729C56.8041 34.2263 55.8395 28.9523 54.8749 26.8427C53.9103 24.7331 57.7687 17.3494 58.251 15.2398C58.7333 13.1302 54.8749 8.91102 52.4634 7.32882C50.5343 6.06306 50.052 4.34021 50.052 3.63701C49.7304 2.75801 47.2546 1 39.9237 1C30.7601 1 33.1715 6.27402 30.2778 7.32882C27.9627 8.17266 26.7409 11.8996 26.4194 13.6576Z" fill="black" stroke="black"/>
<path d="M28.1773 24.6077L27.4482 19.2296C27.3869 18.7771 26.7772 18.6746 26.5944 19.0861L24.4217 23.9763L19.6799 23.1791C19.2646 23.1093 19.0035 23.5993 19.2853 23.9196L22.7146 27.8188L20.5076 32.7862C20.3293 33.1876 20.7784 33.5937 21.1531 33.3699L25.3779 30.8471L28.7147 34.6411C29.0107 34.9776 29.5505 34.7378 29.4907 34.2964L28.7501 28.8335L33.0921 26.2407C33.4488 26.0277 33.3344 25.4746 32.9191 25.4048L28.1773 24.6077Z" fill="white" stroke="black" stroke-width="0.5"/>
<path d="M49.5215 62.1657C49.6531 62.0282 49.8805 62.1586 49.8518 62.3552L49.3104 66.074C49.2976 66.1618 49.3401 66.2508 49.4155 66.294L52.5741 68.1062C52.7416 68.2023 52.7052 68.4649 52.5208 68.4908L49.0216 68.9812C48.9396 68.9927 48.8758 69.0589 48.8632 69.1457L48.3206 72.8724C48.2921 73.0684 48.0422 73.1003 47.9565 72.9189L46.3426 69.5036C46.3039 69.4216 46.2205 69.3738 46.1369 69.3855L42.6499 69.8743C42.4646 69.9003 42.3466 69.6573 42.4779 69.5202L44.9737 66.9142C45.0319 66.8535 45.0454 66.7585 45.0075 66.6782L43.388 63.251C43.3027 63.0704 43.4795 62.8884 43.647 62.9845L46.8056 64.7967C46.881 64.8399 46.9721 64.8276 47.0309 64.7662L49.5215 62.1657Z" fill="white"/>
<path d="M58.8045 46.9216L56.4035 42.9454C56.1807 42.5763 55.6141 42.7326 55.578 43.1731L55.189 47.9189L50.673 49.1647C50.2532 49.2805 50.2033 49.8712 50.6 50.0279L54.8777 51.7173L54.4885 56.4662C54.4524 56.9063 54.9881 57.1151 55.2699 56.7708L58.2997 53.0687L62.5729 54.7563C62.9703 54.9133 63.3513 54.4516 63.1287 54.0829L60.7261 50.104L63.7592 46.398C64.0405 46.0543 63.7403 45.5601 63.3206 45.6759L58.8045 46.9216Z" fill="white" stroke="black" stroke-width="0.5"/>
<path d="M34.5625 54.1974L34.4343 49.8734C34.4213 49.4351 33.8756 49.2417 33.6299 49.5884L31.2069 53.0083L27.0905 51.5496C26.6764 51.4029 26.3472 51.8847 26.6138 52.2472L29.2279 55.8013L26.8159 59.2056C26.5686 59.5546 26.9111 60.0458 27.3172 59.9245L31.3701 58.7137L34.0033 62.2938C34.2672 62.6525 34.808 62.4743 34.7949 62.033L34.6673 57.7288L38.6908 56.5268C39.1012 56.4042 39.093 55.8028 38.6789 55.6561L34.5625 54.1974Z" fill="white" stroke="black" stroke-width="0.5"/>
<path d="M43.8614 36.2046L43.4597 33.5759C43.393 33.1399 42.8143 33.0306 42.6178 33.4169L41.4331 35.746L38.8623 35.2606C38.435 35.1799 38.1696 35.6948 38.4739 36.014L40.3148 37.9446L39.1272 40.2793C38.9311 40.6648 39.3458 41.0924 39.7317 40.9027L42.049 39.7635L43.8827 41.6866C44.1881 42.0069 44.7098 41.7561 44.6433 41.321L44.2406 38.686L46.567 37.5423C46.9516 37.3533 46.8594 36.7708 46.4322 36.6901L43.8614 36.2046Z" fill="white" stroke="black" stroke-width="0.5"/>
<path d="M39.9397 22.7944L38.9309 21.8502C38.6231 21.5621 38.1342 21.8727 38.2106 22.3078L38.4609 23.7338L37.244 24.5069C36.8733 24.7424 36.9871 25.3371 37.4088 25.3681L38.7654 25.468L39.0125 26.875C39.0894 27.313 39.6488 27.3698 39.8311 26.9581L40.4365 25.591L41.8224 25.693C42.2399 25.7238 42.4718 25.1643 42.1619 24.8742L41.1666 23.9426L41.7592 22.6044C41.9435 22.1884 41.5274 21.7857 41.1567 22.0212L39.9397 22.7944Z" fill="white" stroke="black" stroke-width="0.5"/>
<path d="M55.1427 19.2395L53.8665 16.1945C53.6946 15.7842 53.0922 15.8607 53.0108 16.3031L52.4065 19.5868L49.3324 19.977C48.9094 20.0307 48.7804 20.5891 49.1398 20.8104L51.8718 22.4923L51.2576 25.83C51.1775 26.265 51.7003 26.534 52.0135 26.2189L54.2574 23.9609L56.9146 25.5968C57.2854 25.8251 57.738 25.4322 57.569 25.0288L56.2718 21.9337L58.5788 19.6122C58.8824 19.3067 58.6398 18.7955 58.2168 18.8492L55.1427 19.2395Z" fill="white" stroke="black" stroke-width="0.5"/>
</svg>
