<svg width="72" height="97" viewBox="0 0 72 97" fill="none" xmlns="http://www.w3.org/2000/svg">
<path d="M35.1834 1.00001L35.2594 1.00001C37.8384 0.99951 41.2403 0.998858 46.5709 6.01231C53.2999 12.3409 50.2715 33.1906 53.2999 35.5641C56.4056 37.9982 63.6522 52.1159 64.6875 57.9578C65.7227 63.7996 62.617 67.2073 66.7579 71.1019L70.8988 74.9964C69.6911 76.2946 66.4473 78.4041 67.2755 80.3514C68.1037 82.2987 69.0009 84.0837 69.346 84.7328C69.1735 85.2196 68.4143 86.1932 66.7579 86.1932C64.6875 86.1932 66.2403 83.2723 64.1698 84.7328C63.733 85.0409 60.6086 86.0247 60.0819 85.9333C58.7452 85.7014 57.4082 85.7678 56.9232 86.68C55.888 88.6273 50.1942 95.9296 49.159 95.9296C48.1238 95.9296 42.9476 96.9032 41.3947 95.9296C40.1525 95.1507 35.701 89.1141 33.6305 86.1932C32.7678 85.2196 30.3178 83.8565 27.4191 86.1932C23.7958 89.1141 22.243 94.4691 20.1725 93.4955C18.102 92.5219 10.8554 87.6537 9.82018 86.68C8.78495 85.7064 8.26733 81.325 7.74971 81.8119C7.2321 82.2987 3.09117 78.891 2.57355 81.8119C2.05594 84.7328 0.503092 77.9173 5.67925 71.5887C8.43863 68.2149 9.727 66.2246 10.5638 64.7328C8.95107 67.0695 6.67324 69.6414 4.64402 69.6414C2.89162 69.6414 1.97352 69.8158 1.49742 70.0538C1.18558 70.7989 1.0207 71.2605 1.0207 71.1019C1.0207 70.8211 0.848489 70.3783 1.49742 70.0538C2.1426 68.5124 3.41687 65.7578 5.16164 64.7732C7.74971 63.3128 3.60879 61.8523 5.67925 56.9841C7.74971 52.1159 12.4083 51.6291 12.9259 46.2741C13.0594 44.8929 13.5029 42.8314 14.1319 40.4323C15.9416 33.5304 19.2872 23.8341 21.2077 19.4991C23.7958 13.6573 23.2782 6.35502 27.4191 3.43411C30.7319 1.09738 33.1129 1.00003 35.1834 1.00001Z" fill="black"/>
<path d="M67.2755 80.3514C66.4474 78.4041 69.6911 76.2946 70.8988 74.9964C71.2439 75.3209 70.8988 74.9964 66.7579 71.1019C62.617 67.2073 65.7227 63.7996 64.6875 57.9578C63.6522 52.1159 56.4056 37.9982 53.2999 35.5641C50.2715 33.1906 53.2999 12.3409 46.5709 6.01231C41.1877 0.949395 37.7714 1.00001 35.1834 1.00001C33.1129 1.00003 30.7319 1.09738 27.4191 3.43411C23.2782 6.35502 23.7958 13.6573 21.2077 19.4991C19.2872 23.8341 15.9416 33.5304 14.1319 40.4323M67.2755 80.3514C68.1037 82.2987 69.0009 84.0837 69.346 84.7328C69.1735 85.2196 68.4143 86.1932 66.7579 86.1932C64.6875 86.1932 66.2403 83.2723 64.1698 84.7328V84.7328C63.733 85.0409 60.6086 86.0247 60.0819 85.9333C58.7452 85.7014 57.4082 85.7678 56.9232 86.68C55.888 88.6273 50.1942 95.9296 49.159 95.9296C48.1238 95.9296 42.9476 96.9032 41.3947 95.9296C40.1525 95.1507 35.701 89.1141 33.6305 86.1932C32.7678 85.2196 30.3178 83.8565 27.4191 86.1932M67.2755 80.3514C66.4075 80.2153 64.4479 79.007 62.617 75.4063M27.4191 86.1932C23.7958 89.1141 22.243 94.4691 20.1725 93.4955C18.102 92.5219 10.8554 87.6537 9.82018 86.68C8.78495 85.7064 8.26733 81.325 7.74971 81.8119M27.4191 86.1932C27.4191 82.7855 31.0424 63.7996 31.0424 61.8523C31.0424 59.905 32.0777 58.9314 30.5248 55.0369C29.2825 51.9212 29.6621 42.5418 30.5248 37.5114M7.74971 81.8119C7.2321 82.2987 3.09117 78.8909 2.57356 81.8119C2.05594 84.7328 0.503092 77.9173 5.67925 71.5887C10.8554 65.26 10.8554 63.7996 12.4083 61.3655C13.9611 58.9314 8.78494 69.6414 4.64402 69.6414C0.503089 69.6414 1.0207 70.615 1.0207 71.1019C1.0207 71.5887 2.57356 66.2337 5.16164 64.7732C7.74971 63.3128 3.60879 61.8523 5.67925 56.9841C7.74971 52.1159 12.4083 51.6291 12.9259 46.2741C13.0594 44.8929 13.5029 42.8314 14.1319 40.4323M7.74971 81.8119C7.32775 81.325 10.3378 77.9173 10.8554 75.4832C11.2695 73.5359 13.2123 71.1019 14.1319 70.1282C15.1671 68.6678 17.5844 66.7205 18.102 62.3391C18.6196 57.9578 20.6901 56.0105 21.7253 52.1159C22.5535 49.0003 21.6318 44.8137 21.2077 43.84M14.1319 40.4323C14.3631 42.3796 14.7562 46.6636 14.4787 48.2214C14.1319 50.1687 13.9611 52.1159 14.4787 53.5764M27.4191 12.1968C27.074 12.3591 26.0733 13.852 24.831 18.5255C23.2782 24.3673 24.3134 31.6696 23.7958 32.6432C23.3635 33.4565 23.5773 40.2813 21.2077 43.84M18.6196 48.7082C19.3871 48.4676 20.7404 44.5419 21.2077 43.84M37.7714 39.4587C37.7714 39.9455 37.7714 48.2214 41.3947 56.0105C45.0181 63.7996 46.5709 64.7732 47.6061 68.1809C48.6414 71.5887 48.6414 80.8382 47.6061 80.8382C46.916 82.6232 46.1568 86.8748 48.6414 89.601C51.1259 92.3271 51.402 93.3332 51.2294 93.4955M46.0533 26.8014C45.7082 30.3714 45.4321 38.3877 47.0885 41.8928C49.159 46.2741 51.2294 46.7609 52.2647 55.0369C53.2999 63.3128 52.2647 62.3391 53.2999 65.7469C57.4408 72.757 61.2367 75.1074 62.617 75.4063M59.5113 63.7996C59.3388 64.6109 59.5113 67.5968 61.5818 73.0491C61.9162 73.9299 62.2642 74.7125 62.617 75.4063" stroke="white"/>
<ellipse cx="35.1834" cy="16.0914" rx="2.07046" ry="3.89455" fill="white"/>
<ellipse cx="42.43" cy="16.0914" rx="2.07046" ry="3.89455" fill="white"/>
</svg>
