<svg width="109" height="145" viewBox="0 0 109 145" fill="none" xmlns="http://www.w3.org/2000/svg">
<g filter="url(#filter0_d_36_254)">
<path d="M53.345 1.00002L53.4526 1.00001C57.1 0.999307 61.9113 0.998383 69.4503 8.09569C78.967 17.0548 74.684 46.5708 78.967 49.9308C83.3594 53.3766 93.6081 73.3625 95.0723 81.6325C96.5364 89.9025 92.144 94.7266 98.0005 100.24L103.857 105.753C102.149 107.591 97.5612 110.577 98.7325 113.334C99.9038 116.091 101.173 118.618 101.661 119.537C101.417 120.226 100.343 121.604 98.0005 121.604C95.0723 121.604 97.2684 117.469 94.3402 119.537C93.722 119.973 89.3025 121.365 88.557 121.236C86.6671 120.908 84.7771 121.002 84.0914 122.293C82.6273 125.05 74.5747 135.387 73.1106 135.387C71.6464 135.387 64.3259 136.766 62.1297 135.387C60.3728 134.285 54.0771 125.739 51.1489 121.604C49.9288 120.226 46.4637 118.296 42.3642 121.604C37.2398 125.739 35.0436 133.32 32.1154 131.942C29.1872 130.563 18.9384 123.672 17.4743 122.293C16.0101 120.915 15.2781 114.712 14.546 115.402C13.814 116.091 7.95751 111.267 7.22546 115.402C6.4934 119.537 4.29723 109.888 11.6178 100.929C15.5204 96.153 17.3425 93.3354 18.526 91.2235C16.2451 94.5315 13.0236 98.1724 10.1537 98.1724C7.67529 98.1724 6.37683 98.4193 5.70349 98.7563C5.26246 99.811 5.02928 100.464 5.02928 100.24C5.02928 99.8424 4.78572 99.2156 5.70349 98.7563C6.61596 96.5741 8.41814 92.6746 10.8857 91.2808C14.546 89.2133 8.68957 87.1458 11.6178 80.2541C14.546 73.3625 21.1345 72.6733 21.8666 65.0925C22.0554 63.1371 22.6826 60.2188 23.5723 56.8225C26.1317 47.0518 30.8634 33.3252 33.5795 27.1883C37.2398 18.9184 36.5077 8.58086 42.3642 4.44586C47.0493 1.13786 50.4168 1.00004 53.345 1.00002Z" fill="black"/>
<path d="M98.7325 113.334C97.5613 110.577 102.149 107.591 103.857 105.753C104.345 106.213 103.857 105.753 98.0005 100.24C92.144 94.7266 96.5364 89.9024 95.0723 81.6325C93.6081 73.3625 83.3594 53.3766 78.967 49.9308C74.684 46.5708 78.967 17.0548 69.4503 8.09569C61.8369 0.928361 57.0053 1.00002 53.345 1.00002C50.4168 1.00004 47.0493 1.13786 42.3642 4.44586C36.5077 8.58086 37.2398 18.9183 33.5795 27.1883C30.8634 33.3252 26.1317 47.0518 23.5723 56.8225M98.7325 113.334C99.9038 116.091 101.173 118.618 101.661 119.537C101.417 120.226 100.343 121.604 98.0005 121.604C95.0723 121.604 97.2684 117.469 94.3402 119.537V119.537C93.722 119.973 89.3025 121.365 88.557 121.236C86.6671 120.908 84.7771 121.002 84.0914 122.293C82.6273 125.05 74.5747 135.387 73.1106 135.387C71.6464 135.387 64.3259 136.766 62.1297 135.387C60.3728 134.285 54.0771 125.739 51.1489 121.604C49.9288 120.226 46.4637 118.296 42.3642 121.604M98.7325 113.334C97.505 113.141 94.7335 111.431 92.144 106.333M42.3642 121.604C37.2398 125.739 35.0436 133.32 32.1154 131.942C29.1872 130.563 18.9384 123.672 17.4743 122.293C16.0101 120.915 15.2781 114.712 14.546 115.402M42.3642 121.604C42.3642 116.78 47.4886 89.9024 47.4886 87.1458C47.4886 84.3891 48.9527 83.0108 46.7565 77.4975C44.9996 73.0868 45.5364 59.8089 46.7565 52.6875M14.546 115.402C13.814 116.091 7.95751 111.267 7.22546 115.402C6.4934 119.537 4.29723 109.888 11.6178 100.929C18.9384 91.9699 18.9384 89.9024 21.1345 86.4566C23.3307 83.0108 16.0101 98.1724 10.1537 98.1724C4.29723 98.1724 5.02928 99.5508 5.02928 100.24C5.02928 100.929 7.22546 93.3483 10.8857 91.2808C14.546 89.2133 8.68957 87.1458 11.6178 80.2541C14.546 73.3625 21.1345 72.6733 21.8666 65.0925C22.0554 63.1371 22.6826 60.2188 23.5723 56.8225M14.546 115.402C13.9493 114.712 18.2063 109.888 18.9384 106.442C19.524 103.686 22.2716 100.24 23.5723 98.8616C25.0364 96.7941 28.4551 94.0374 29.1872 87.8349C29.9192 81.6325 32.8474 78.8758 34.3116 73.3625C35.4828 68.9518 34.1792 63.025 33.5795 61.6466M23.5723 56.8225C23.8993 59.5791 24.4552 65.6438 24.0628 67.8491C23.5723 70.6058 23.3307 73.3625 24.0628 75.43M42.3642 16.8508C41.8761 17.0806 40.4608 19.194 38.7039 25.81C36.5077 34.08 37.9718 44.4175 37.2398 45.7958C36.6283 46.9471 36.9307 56.6087 33.5795 61.6466M29.9192 68.5383C31.0046 68.1977 32.9186 62.6402 33.5795 61.6466M57.0053 55.4441C57.0053 56.1333 57.0053 67.8491 62.1297 78.8758C67.2541 89.9024 69.4503 91.2808 70.9144 96.1049C72.3785 100.929 72.3785 114.023 70.9144 114.023C69.9383 116.55 68.8646 122.569 72.3785 126.428C75.8924 130.288 76.2828 131.712 76.0388 131.942M68.7182 37.5258C68.2302 42.5797 67.8398 53.928 70.1823 58.89C73.1106 65.0925 76.0388 65.7816 77.5029 77.4975C78.967 89.2133 77.5029 87.8349 78.967 92.6591C84.8235 102.583 90.1919 105.91 92.144 106.333M87.7517 89.9024C87.5077 91.0511 87.7517 95.2779 90.6799 102.997C91.153 104.244 91.6451 105.351 92.144 106.333" stroke="white"/>
<ellipse cx="53.345" cy="22.3642" rx="2.92823" ry="5.51333" fill="white"/>
<ellipse cx="63.5938" cy="22.3642" rx="2.92823" ry="5.51333" fill="white"/>
</g>
<defs>
<filter id="filter0_d_36_254" x="0.499985" y="0.5" width="108.061" height="144" filterUnits="userSpaceOnUse" color-interpolation-filters="sRGB">
<feFlood flood-opacity="0" result="BackgroundImageFix"/>
<feColorMatrix in="SourceAlpha" type="matrix" values="0 0 0 0 0 0 0 0 0 0 0 0 0 0 0 0 0 0 127 0" result="hardAlpha"/>
<feOffset dy="4"/>
<feGaussianBlur stdDeviation="2"/>
<feComposite in2="hardAlpha" operator="out"/>
<feColorMatrix type="matrix" values="0 0 0 0 0 0 0 0 0 0 0 0 0 0 0 0 0 0 0.25 0"/>
<feBlend mode="normal" in2="BackgroundImageFix" result="effect1_dropShadow_36_254"/>
<feBlend mode="normal" in="SourceGraphic" in2="effect1_dropShadow_36_254" result="shape"/>
</filter>
</defs>
</svg>
