<svg width="111" height="137" viewBox="0 0 111 137" fill="none" xmlns="http://www.w3.org/2000/svg">
<g filter="url(#filter0_d_36_228)">
<rect x="27.5242" y="63.8729" width="56.0287" height="46.6793" fill="black"/>
<rect x="15.4396" y="77.5352" width="21.972" height="46.6793" fill="black"/>
<rect x="71.4683" y="77.5352" width="24.1692" height="46.6793" fill="black"/>
<ellipse cx="8.38804" cy="12.6372" rx="8.38804" ry="12.6372" transform="matrix(0.700356 -0.713794 0.688358 0.725371 60.4823 112.28)" fill="black"/>
<ellipse cx="8.38804" cy="12.6372" rx="8.38804" ry="12.6372" transform="matrix(0.700356 -0.713794 0.688358 0.725371 60.4823 112.28)" fill="black"/>
<ellipse cx="8.57939" cy="15.4168" rx="8.57939" ry="15.4168" transform="matrix(0.642101 0.76662 -0.743463 0.668777 40.5604 98.0285)" fill="black"/>
<ellipse cx="8.57939" cy="15.4168" rx="8.57939" ry="15.4168" transform="matrix(0.642101 0.76662 -0.743463 0.668777 40.5604 98.0285)" fill="black"/>
<ellipse cx="13.8151" cy="15.4168" rx="13.8151" ry="15.4168" transform="matrix(0.642101 0.76662 -0.743463 0.668777 27.3772 91.1974)" fill="black"/>
<ellipse cx="13.8151" cy="15.4168" rx="13.8151" ry="15.4168" transform="matrix(0.642101 0.76662 -0.743463 0.668777 27.3772 91.1974)" fill="black"/>
<path d="M94.1244 124.118C90.3859 126.975 84.2322 128.161 80.2571 126.491C78.1825 125.62 77.7421 123.447 76.3214 121.451C72.1788 115.629 73.4328 107.385 79.1225 103.037C84.8121 98.6883 92.7827 99.8825 96.9254 105.704C101.068 111.526 99.814 119.77 94.1244 124.118Z" fill="black"/>
<path d="M94.1244 124.118C90.3859 126.975 84.2322 128.161 80.2571 126.491C78.1825 125.62 77.7421 123.447 76.3214 121.451C72.1788 115.629 73.4328 107.385 79.1225 103.037C84.8121 98.6883 92.7827 99.8825 96.9254 105.704C101.068 111.526 99.814 119.77 94.1244 124.118Z" fill="black"/>
<path d="M100.988 103.062C95.4932 107.261 84.9365 102.09 77.4086 91.511C69.8806 80.9323 68.2321 68.9525 73.7265 64.7534C78.4966 61.1077 80.2912 59.4018 87.398 67.2885C88.4771 68.486 95.7438 76.1406 96.7361 77.5351C104.264 88.1138 106.482 98.8629 100.988 103.062Z" fill="black"/>
<path d="M100.988 103.062C95.4932 107.261 84.9365 102.09 77.4086 91.511C69.8806 80.9323 68.2321 68.9525 73.7265 64.7534C78.4966 61.1077 80.2912 59.4018 87.398 67.2885C88.4771 68.486 95.7438 76.1406 96.7361 77.5351C104.264 88.1138 106.482 98.8629 100.988 103.062Z" fill="black"/>
<path d="M7.2001 100.305C4.45359 95.1821 5.55219 84.3662 16.5382 75.2581C25.2552 64.0759 37.0156 58.481 42.1282 62.7614C47.2409 67.0418 44.319 79.5767 35.602 90.7588C29.3386 98.7935 19.0478 105.344 12.6931 104.86C10.2038 104.67 8.63915 101.51 7.2001 100.305Z" fill="black"/>
<path d="M7.2001 100.305C4.45359 95.1821 5.55219 84.3662 16.5382 75.2581C25.2552 64.0759 37.0156 58.481 42.1282 62.7614C47.2409 67.0418 44.319 79.5767 35.602 90.7588C29.3386 98.7935 19.0478 105.344 12.6931 104.86C10.2038 104.67 8.63915 101.51 7.2001 100.305Z" fill="black"/>
<path d="M73.1162 92.9052C73.1162 96.1767 73.2811 97.8114 70.919 100.194C67.7002 103.442 60.5866 104.86 54.988 104.86C49.3894 104.86 41.806 103.721 39.0595 100.194C36.6974 97.8114 36.8623 96.1767 36.8623 92.9052C36.8623 88.1005 40.1025 82.7212 44.7351 80.2009C47.5552 78.6668 51.3149 77.5352 54.988 77.5352C58.6612 77.5352 61.6885 78.6668 64.5086 80.2009C69.1412 82.7212 73.1162 88.1005 73.1162 92.9052Z" fill="white"/>
<path d="M17.2959 108.794C20.0975 107.854 23.5217 108.403 24.8836 108.794C27.4129 109.774 32.3547 112.674 31.8877 116.436C31.3041 121.138 30.7204 122.314 29.5531 122.902C27.9966 123.294 24.6372 122.902 22.5489 122.902C20.7979 122.902 17.6969 121.799 16.7122 121.138C14.9612 119.963 14.3775 115.848 14.3775 115.26C14.3775 114.672 13.7938 109.97 17.2959 108.794Z" fill="white" stroke="white"/>
<path d="M92.3417 109.414C89.7051 108.503 86.4825 109.034 85.2008 109.414C82.8205 110.362 78.1698 113.171 78.6092 116.814C79.1585 121.368 79.7078 122.507 80.8064 123.076C82.2712 123.455 85.4328 123.076 87.398 123.076C89.0459 123.076 91.9643 122.008 92.891 121.368C94.5389 120.23 95.0882 116.245 95.0882 115.676C95.0882 115.106 95.6375 110.552 92.3417 109.414Z" fill="white" stroke="white"/>
<path d="M36.313 9.22401C43.344 5.58075 46.5666 4.10062 50.0455 4.10062C52.792 3.53142 59.3836 4.66992 66.5246 5.80846C73.1162 8.65477 75.8627 10.9318 75.8627 10.9318C76.9613 8.46501 80.5867 3.18987 86.2994 1.82365C92.0121 0.457424 98.5671 3.91093 101.131 5.80846C102.595 6.94698 106.074 12.6396 106.074 14.9166C106.074 17.1936 106.074 19.4707 105.525 21.7477C103.877 26.3018 101.131 32.2265 96.1868 33.1329C95.3732 33.282 92.7079 33.9693 91.243 33.3651C91.4608 34.2762 91.6355 35.0557 91.7923 35.6516C93.4402 41.9135 91.5285 55.0894 91.243 55.5757C89.0459 59.3188 88.0364 59.2264 86.2994 61.0266C85.624 61.7265 84.4307 62.4565 83.0036 63.1604C87.2149 67.0032 96.7361 76.5105 101.131 83.797C105.525 91.0835 104.793 96.7002 103.877 98.5977C103.145 100.116 101.131 103.38 98.9333 104.29C97.6379 104.827 97.0426 105.004 96.8097 105.022C96.6475 105.035 96.661 104.971 96.7361 104.898C96.7609 104.94 96.7855 104.981 96.8097 105.022C97.0426 105.004 97.6379 104.827 98.9333 104.29C101.131 103.38 103.145 100.116 103.877 98.5977C104.793 96.7002 105.525 91.0835 101.131 83.797C96.7361 76.5105 87.2149 67.0032 83.0036 63.1604C78.6272 65.3192 72.0516 67.2335 71.4682 67.2885C65.426 67.8578 46.2004 69.5655 33.5665 65.0114C31.6722 64.3286 30.0373 63.6384 28.6228 62.9365C20.6031 58.957 19.6693 54.6006 18.7354 49.0722C18.1041 45.335 18.8352 37.9778 20.1674 31.9944C18.9577 32.1841 15.7691 31.8805 12.6931 29.1481C8.84796 25.7325 7.74935 22.317 6.65075 17.7629C6.06694 15.3428 6.97006 11.9514 8.29866 9.22402C8.97017 7.84552 9.9426 6.63663 10.4959 5.80845C12.1437 3.72118 13.2424 2.39292 17.6368 1.2544C19.1979 0.849932 25.2962 0.987365 26.4256 1.25439C30.1729 2.14033 32.1461 3.31575 34.1158 6.3777C35.4207 8.40614 35.5234 9.40978 35.4255 9.71467C35.718 9.54279 36.0139 9.379 36.313 9.22401Z" fill="black"/>
<path d="M75.8627 10.9318C75.8627 10.9318 73.1162 8.65477 66.5246 5.80846C59.3836 4.66992 52.792 3.53142 50.0455 4.10062C46.5666 4.10062 43.344 5.58075 36.313 9.22401C35.9686 9.40246 35.6285 9.59255 35.2929 9.79325M75.8627 10.9318C76.9613 8.46501 80.5867 3.18987 86.2994 1.82365C92.0121 0.457424 98.5671 3.91093 101.131 5.80846C102.595 6.94698 106.074 12.6396 106.074 14.9166C106.074 17.1936 106.074 19.4707 105.525 21.7477C103.877 26.3018 101.131 32.2265 96.1868 33.1329C95.3732 33.282 92.7079 33.9693 91.243 33.3651M75.8627 10.9318C75.8627 10.9318 77.7416 12.2518 80.0855 14.3474M91.243 33.3651C91.4608 34.2762 91.6355 35.0557 91.7923 35.6516C93.4402 41.9135 91.5285 55.0894 91.243 55.5757C89.0459 59.3188 88.0364 59.2264 86.2994 61.0266C85.624 61.7265 84.4307 62.4565 83.0036 63.1604M91.243 33.3651C90.481 30.1761 89.192 25.3738 86.2994 21.1785C84.4911 18.5558 82.1142 16.1611 80.0855 14.3474M35.2929 9.79325C35.4498 9.983 35.8736 9.11015 34.1158 6.3777C32.1461 3.31575 30.1729 2.14033 26.4256 1.25439C25.2962 0.987365 19.1979 0.849932 17.6368 1.2544C13.2424 2.39292 12.1437 3.72118 10.4959 5.80845C9.9426 6.63663 8.97017 7.84552 8.29866 9.22402C6.97006 11.9514 6.06694 15.3428 6.65075 17.7629C7.74935 22.317 8.84796 25.7325 12.6931 29.1481C15.7691 31.8805 18.9577 32.1841 20.1674 31.9944M35.2929 9.79325C34.1932 10.4509 33.1415 11.2223 32.1438 12.0703M20.1674 31.9944C18.8352 37.9778 18.1041 45.335 18.7354 49.0722C19.6693 54.6006 20.6031 58.957 28.6228 62.9365M20.1674 31.9944C20.4364 30.7861 20.73 29.6339 21.0417 28.5788M28.6228 62.9365C30.0373 63.6384 31.6722 64.3286 33.5665 65.0114C46.2004 69.5655 65.426 67.8578 71.4682 67.2885C72.0516 67.2335 78.6272 65.3192 83.0036 63.1604M28.6228 62.9365L17.6368 73.5503C13.9748 77.5351 7.90912 85.5773 6.65076 89.4896C5.00286 94.6129 5.55216 98.0285 8.29866 101.444C10.4959 104.176 12.51 105.239 13.2424 105.429M13.2424 105.429C14.1579 103.342 18.1861 100.394 24.2284 100.306C25.0225 100.294 25.7524 100.336 26.4256 100.394M13.2424 105.429C10.8621 108.465 8.14721 115.44 11.5945 120.799C15.9889 127.63 25.2966 127.061 30.2707 127.061C37.9609 127.061 47.8483 112.829 47.299 110.552M36.313 106.567C33.8502 103.505 32.2707 100.9 26.4256 100.394M36.313 71.8426C33.9327 74.8786 28.8425 82.4308 27.5242 88.3511C26.2059 94.2714 26.2425 98.8465 26.4256 100.394M47.8483 110.552H63.2288C64.5105 113.778 68.246 120.306 70.919 123.076C74.2148 126.491 84.3189 127.63 86.2994 127.63C88.4966 127.63 96.1868 124.784 98.384 120.799C100.311 117.304 100.032 111.691 98.384 108.275C97.9909 107.46 97.52 106.204 96.7361 104.898M72.5669 107.137C73.0749 105.557 74.0529 101.543 82.4543 100.048M75.8627 72.9811C77.6937 76.7761 81.5754 85.3909 82.4543 89.4896C83.3332 93.5883 82.8205 98.2363 82.4543 100.048M82.4543 100.048C83.1365 99.9265 83.8677 99.8218 84.6515 99.7363C91.8129 98.955 95.0223 102.044 96.7361 104.898M83.0036 63.1604C87.2149 67.0032 96.7361 76.5105 101.131 83.797C105.525 91.0835 104.793 96.7002 103.877 98.5977C103.145 100.116 101.131 103.38 98.9333 104.29C96.7361 105.201 96.553 105.075 96.7361 104.898M21.0417 28.5788C21.3552 27.5179 21.6871 26.5552 22.0311 25.7325C23.6233 22.2824 27.2294 16.2472 32.1438 12.0703M21.0417 28.5788C19.3574 27.8198 14.6706 24.9356 13.7917 21.7477C12.6931 17.7629 13.2424 13.2088 16.5382 10.3626C19.834 7.51625 24.7777 7.51622 28.0735 9.22401C30.7101 10.5903 31.8856 11.6908 32.1438 12.0703M80.0855 14.3474C81.4244 12.4498 86.6433 8.88248 90.5982 9.79329C95.5419 10.9318 97.2546 14.7569 97.8347 17.7629C98.384 20.6092 96.7361 25.1633 95.6375 26.8711C94.9562 27.9302 91.7923 30.2866 90.5982 30.8559" stroke="white"/>
<path d="M68.1725 47.3644C68.1725 50.1588 68.2963 53.2985 66.5246 55.334C64.1103 58.1077 59.1885 59.3188 54.9893 59.3188C50.79 59.3188 46.4175 58.1077 44.0032 55.334C42.2315 53.2985 41.806 50.1588 41.806 47.3644C41.806 43.2604 43.8243 40.4089 47.299 38.2562C49.4142 36.9458 52.2342 35.9792 54.9893 35.9792C57.7443 35.9792 60.015 36.9458 62.1302 38.2562C65.6049 40.4089 68.1725 43.2604 68.1725 47.3644Z" fill="white"/>
<path d="M54.9893 44.5181V52.4878" stroke="black"/>
<path d="M56.0879 44.5181V52.4878" stroke="black"/>
<path d="M56.0879 51.3492C55.3555 51.8302 53.2315 52.72 50.5949 52.4314" stroke="black"/>
<path d="M54.9893 51.3492C55.7217 51.8302 57.8456 52.72 60.4823 52.4314" stroke="black"/>
<ellipse cx="54.9893" cy="42.2411" rx="6.59161" ry="3.41556" fill="black"/>
<ellipse cx="69.2711" cy="36.5485" rx="4.39441" ry="4.55407" fill="white"/>
<ellipse cx="40.7075" cy="36.5485" rx="4.39441" ry="4.55407" fill="white"/>
<ellipse cx="40.7074" cy="36.5485" rx="3.29581" ry="3.41556" fill="black"/>
<ellipse cx="39.0595" cy="34.8407" rx="1.6479" ry="1.70778" fill="white"/>
<ellipse cx="69.2711" cy="36.5485" rx="3.29581" ry="3.41556" fill="black"/>
<ellipse cx="67.6232" cy="34.8407" rx="1.6479" ry="1.70778" fill="white"/>
</g>
<defs>
<filter id="filter0_d_36_228" x="-4" y="0.5" width="118" height="140.5" filterUnits="userSpaceOnUse" color-interpolation-filters="sRGB">
<feFlood flood-opacity="0" result="BackgroundImageFix"/>
<feColorMatrix in="SourceAlpha" type="matrix" values="0 0 0 0 0 0 0 0 0 0 0 0 0 0 0 0 0 0 127 0" result="hardAlpha"/>
<feOffset dy="4"/>
<feGaussianBlur stdDeviation="2"/>
<feComposite in2="hardAlpha" operator="out"/>
<feColorMatrix type="matrix" values="0 0 0 0 0 0 0 0 0 0 0 0 0 0 0 0 0 0 0.25 0"/>
<feBlend mode="normal" in2="BackgroundImageFix" result="effect1_dropShadow_36_228"/>
<feBlend mode="normal" in="SourceGraphic" in2="effect1_dropShadow_36_228" result="shape"/>
</filter>
</defs>
</svg>
