<svg width="78" height="97" viewBox="0 0 78 97" fill="none" xmlns="http://www.w3.org/2000/svg">
<rect x="19.5172" y="46.7258" width="39.7294" height="33.9485" fill="black"/>
<rect x="10.9481" y="56.6619" width="15.5802" height="33.9485" fill="black"/>
<rect x="50.6775" y="56.6619" width="17.1382" height="33.9485" fill="black"/>
<ellipse cx="6.02607" cy="9.08253" rx="6.02607" ry="9.08253" transform="matrix(0.691269 -0.722597 0.679141 0.734008 42.8874 81.931)" fill="black"/>
<ellipse cx="6.02607" cy="9.08253" rx="6.02607" ry="9.08253" transform="matrix(0.691269 -0.722597 0.679141 0.734008 42.8874 81.931)" fill="black"/>
<ellipse cx="6.17572" cy="11.0582" rx="6.17572" ry="11.0582" transform="matrix(0.63252 0.774544 -0.734975 0.678094 28.761 71.5662)" fill="black"/>
<ellipse cx="6.17572" cy="11.0582" rx="6.17572" ry="11.0582" transform="matrix(0.63252 0.774544 -0.734975 0.678094 28.761 71.5662)" fill="black"/>
<ellipse cx="9.94452" cy="11.0582" rx="9.94452" ry="11.0582" transform="matrix(0.63252 0.774544 -0.734975 0.678094 19.4129 66.5981)" fill="black"/>
<ellipse cx="9.94452" cy="11.0582" rx="9.94452" ry="11.0582" transform="matrix(0.63252 0.774544 -0.734975 0.678094 19.4129 66.5981)" fill="black"/>
<path d="M66.7427 90.5405C64.0918 92.6185 59.7283 93.4804 56.9096 92.2665C55.4385 91.633 55.1262 90.0526 54.1188 88.6007C51.1813 84.3669 52.0705 78.371 56.105 75.2085C60.1395 72.0461 65.7914 72.9146 68.7289 77.1484C71.6664 81.3822 70.7772 87.3781 66.7427 90.5405Z" fill="black"/>
<path d="M66.7427 90.5405C64.0918 92.6185 59.7283 93.4804 56.9096 92.2665C55.4385 91.633 55.1262 90.0526 54.1188 88.6007C51.1813 84.3669 52.0705 78.371 56.105 75.2085C60.1395 72.0461 65.7914 72.9146 68.7289 77.1484C71.6664 81.3822 70.7772 87.3781 66.7427 90.5405Z" fill="black"/>
<path d="M71.6094 75.227C67.7134 78.2809 60.2277 74.5198 54.8897 66.8262C49.5517 59.1326 48.3828 50.42 52.2788 47.3661C55.6612 44.7147 56.9338 43.474 61.9731 49.2098C62.7383 50.0808 67.891 55.6477 68.5947 56.6619C73.9327 64.3555 75.5054 72.173 71.6094 75.227Z" fill="black"/>
<path d="M71.6094 75.227C67.7134 78.2809 60.2277 74.5198 54.8897 66.8262C49.5517 59.1326 48.3828 50.42 52.2788 47.3661C55.6612 44.7147 56.9338 43.474 61.9731 49.2098C62.7383 50.0808 67.891 55.6477 68.5947 56.6619C73.9327 64.3555 75.5054 72.173 71.6094 75.227Z" fill="black"/>
<path d="M5.1055 73.2222C3.15798 69.4961 3.93699 61.63 11.7271 55.0059C17.9082 46.8734 26.2474 42.8044 29.8727 45.9174C33.4981 49.0304 31.4262 58.1467 25.245 66.2792C20.8037 72.1226 13.5066 76.8863 9.00054 76.5342C7.2354 76.3963 6.12592 74.0984 5.1055 73.2222Z" fill="black"/>
<path d="M5.1055 73.2222C3.15798 69.4961 3.93699 61.63 11.7271 55.0059C17.9082 46.8734 26.2474 42.8044 29.8727 45.9174C33.4981 49.0304 31.4262 58.1467 25.245 66.2792C20.8037 72.1226 13.5066 76.8863 9.00054 76.5342C7.2354 76.3963 6.12592 74.0984 5.1055 73.2222Z" fill="black"/>
<path d="M51.846 67.8401C51.846 70.2194 51.9629 71.4083 50.288 73.1414C48.0056 75.5031 42.9614 76.5342 38.9915 76.5342C35.0216 76.5342 29.6443 75.7062 27.6968 73.1414C26.0218 71.4083 26.1387 70.2194 26.1387 67.8401C26.1387 64.3458 28.4363 60.4336 31.7213 58.6007C33.7209 57.4849 36.3869 56.6619 38.9915 56.6619C41.5961 56.6619 43.7428 57.4849 45.7424 58.6007C49.0274 60.4336 51.846 64.3458 51.846 67.8401Z" fill="white"/>
<path d="M12.2643 79.3959C14.251 78.712 16.679 79.111 17.6448 79.3959C19.4382 80.1084 22.9424 82.2174 22.6113 84.9534C22.1974 88.3733 21.7835 89.2283 20.9558 89.6558C19.8521 89.9408 17.47 89.6558 15.9892 89.6558C14.7476 89.6558 12.5487 88.8541 11.8505 88.3733C10.6088 87.5183 10.1949 84.5259 10.1949 84.0984C10.1949 83.6709 9.78106 80.2509 12.2643 79.3959Z" fill="white" stroke="white"/>
<path d="M65.4787 79.8463C63.6091 79.1839 61.324 79.5703 60.4151 79.8463C58.7273 80.5363 55.4295 82.5787 55.7411 85.2284C56.1306 88.5404 56.5201 89.3685 57.2991 89.7825C58.3378 90.0585 60.5796 89.7825 61.9731 89.7825C63.1417 89.7825 65.2111 89.0061 65.8682 88.5404C67.0367 87.7124 67.4262 84.8144 67.4262 84.4004C67.4262 83.9864 67.8157 80.6743 65.4787 79.8463Z" fill="white" stroke="white"/>
<path d="M25.7492 6.9811C30.7349 4.33146 33.02 3.255 35.4868 3.255C37.4343 2.84103 42.1084 3.66904 47.172 4.49706C51.846 6.5671 53.7935 8.22313 53.7935 8.22313C54.5726 6.4291 57.1433 2.59263 61.1941 1.59902C65.245 0.605399 69.8931 3.11704 71.7107 4.49706C72.7494 5.32508 75.2163 9.46514 75.2163 11.1212C75.2163 12.7772 75.2163 14.4332 74.8268 16.0892C73.6583 19.4013 71.7107 23.7102 68.2052 24.3694C67.6283 24.4778 65.7383 24.9777 64.6996 24.5382C64.854 25.2009 64.9779 25.7678 65.0891 26.2012C66.2576 30.7553 64.9021 40.3377 64.6996 40.6914C63.1416 43.4137 62.4258 43.3465 61.1941 44.6557C60.7152 45.1647 59.8691 45.6956 58.8571 46.2076C61.8433 49.0023 68.5947 55.9167 71.7108 61.216C74.8268 66.5153 74.3074 70.6001 73.6583 71.9802C73.1389 73.0842 71.7108 75.4578 70.1527 76.1202C69.2341 76.5108 68.812 76.6392 68.6469 76.6525C68.5319 76.6617 68.5414 76.6152 68.5947 76.5624C68.6123 76.5925 68.6297 76.6225 68.6469 76.6525C68.812 76.6392 69.2341 76.5108 70.1527 76.1202C71.7108 75.4578 73.1389 73.0842 73.6583 71.9802C74.3074 70.6001 74.8268 66.5153 71.7108 61.216C68.5947 55.9167 61.8433 49.0023 58.8571 46.2076C55.7538 47.7776 51.0912 49.1698 50.6775 49.2098C46.393 49.6238 32.7603 50.8658 23.8017 47.5538C22.4585 47.0572 21.2992 46.5552 20.2962 46.0448C14.6095 43.1506 13.9473 39.9823 13.2851 35.9616C12.8374 33.2437 13.3559 27.8929 14.3005 23.5413C13.4427 23.6793 11.1818 23.4585 9.00055 21.4713C6.27401 18.9873 5.495 16.5032 4.71599 13.1912C4.30202 11.4311 4.94241 8.96468 5.88452 6.9811C6.36067 5.97856 7.05022 5.09937 7.44253 4.49705C8.61102 2.97904 9.39006 2.01303 12.5061 1.18501C13.6131 0.89086 17.9373 0.990811 18.7382 1.18501C21.3953 1.82933 22.7945 2.68418 24.1912 4.91106C25.1165 6.38628 25.1893 7.1162 25.1199 7.33794C25.3273 7.21294 25.5371 7.09382 25.7492 6.9811Z" fill="black"/>
<path d="M53.7935 8.22313C53.7935 8.22313 51.846 6.5671 47.172 4.49706C42.1084 3.66904 37.4343 2.84103 35.4868 3.255C33.02 3.255 30.7349 4.33146 25.7492 6.9811C25.505 7.11088 25.2639 7.24913 25.0259 7.39509M53.7935 8.22313C54.5726 6.4291 57.1433 2.59263 61.1941 1.59902C65.245 0.605399 69.8931 3.11704 71.7107 4.49706C72.7494 5.32508 75.2163 9.46514 75.2163 11.1212C75.2163 12.7772 75.2163 14.4332 74.8268 16.0892C73.6583 19.4013 71.7107 23.7102 68.2052 24.3694C67.6283 24.4778 65.7383 24.9777 64.6996 24.5382M53.7935 8.22313C53.7935 8.22313 55.1259 9.18314 56.7879 10.7072M64.6996 24.5382C64.854 25.2009 64.9779 25.7678 65.0891 26.2012C66.2576 30.7553 64.902 40.3377 64.6996 40.6914C63.1416 43.4137 62.4258 43.3465 61.1941 44.6557C60.7152 45.1647 59.8691 45.6956 58.8571 46.2076M64.6996 24.5382C64.1592 22.219 63.2453 18.7264 61.1941 15.6752C59.9119 13.7679 58.2264 12.0263 56.7879 10.7072M25.0259 7.39509C25.1372 7.53309 25.4376 6.89829 24.1912 4.91106C22.7945 2.68418 21.3953 1.82933 18.7382 1.18501C17.9373 0.990811 13.6131 0.89086 12.5061 1.18501C9.39006 2.01303 8.61102 2.97904 7.44253 4.49705C7.05022 5.09937 6.36067 5.97856 5.88452 6.9811C4.94241 8.96468 4.30202 11.4311 4.71599 13.1912C5.495 16.5032 6.27401 18.9873 9.00055 21.4713C11.1818 23.4585 13.4427 23.6793 14.3005 23.5413M25.0259 7.39509C24.2461 7.87337 23.5004 8.43441 22.7929 9.05115M14.3005 23.5413C13.3559 27.8929 12.8374 33.2437 13.2851 35.9616C13.9473 39.9822 14.6095 43.1506 20.2962 46.0447M14.3005 23.5413C14.4913 22.6626 14.6994 21.8247 14.9205 21.0573M20.2962 46.0447C21.2992 46.5552 22.4585 47.0572 23.8017 47.5538C32.7603 50.8658 46.393 49.6238 50.6775 49.2098C51.0912 49.1698 55.7538 47.7776 58.8571 46.2076M20.2962 46.0447L12.5061 53.7639C9.90939 56.6619 5.6083 62.5108 4.716 65.3561C3.54749 69.0821 3.93699 71.5662 5.88452 74.0502C7.44253 76.0374 8.87072 76.8102 9.39006 76.9482M9.39006 76.9482C10.0392 75.4302 12.8956 73.2866 17.1801 73.2222C17.7433 73.2137 18.2608 73.2443 18.7382 73.2866M9.39006 76.9482C7.7022 79.1563 5.77713 84.2291 8.22154 88.1264C11.3376 93.0945 17.9376 92.6805 21.4647 92.6805C26.9178 92.6805 33.9288 82.3303 33.5393 80.6743M25.7492 77.7763C24.0028 75.5488 22.8829 73.6542 18.7382 73.2866M25.7492 52.5218C24.0614 54.7299 20.452 60.2224 19.5172 64.528C18.5824 68.8337 18.6083 72.1611 18.7382 73.2866M33.9288 80.6743H44.835C45.7438 83.0203 48.3926 87.7678 50.288 89.7824C52.625 92.2665 59.7898 93.0945 61.1941 93.0945C62.7522 93.0945 68.2052 91.0245 69.7632 88.1264C71.1297 85.5847 70.9317 81.5023 69.7632 79.0183C69.4845 78.4257 69.1505 77.5119 68.5947 76.5624M51.4565 78.1903C51.8168 77.0415 52.5102 74.122 58.4676 73.0348M53.7936 53.3499C55.0919 56.1099 57.8444 62.3752 58.4676 65.3561C59.0908 68.3369 58.7273 71.7173 58.4676 73.0348M58.4676 73.0348C58.9514 72.9466 59.4698 72.8704 60.0256 72.8082C65.1037 72.24 67.3795 74.4865 68.5947 76.5624M58.8571 46.2076C61.8433 49.0023 68.5947 55.9167 71.7108 61.216C74.8268 66.5153 74.3074 70.6001 73.6583 71.9802C73.1389 73.0842 71.7108 75.4578 70.1527 76.1202C68.5947 76.7826 68.4649 76.691 68.5947 76.5624M14.9205 21.0573C15.1428 20.2858 15.3782 19.5856 15.6221 18.9873C16.7511 16.4781 19.3081 12.0889 22.7929 9.05115M14.9205 21.0573C13.7262 20.5053 10.4028 18.4077 9.77956 16.0893C9.00055 13.1912 9.39006 9.87916 11.7271 7.80913C14.0641 5.73909 17.5696 5.73907 19.9067 6.9811C21.7763 7.97473 22.6098 8.77514 22.7929 9.05115M56.7879 10.7072C57.7373 9.32715 61.438 6.73271 64.2424 7.39512C67.7479 8.22313 68.9624 11.005 69.3737 13.1912C69.7632 15.2612 68.5947 18.5733 67.8157 19.8153C67.3326 20.5856 65.0891 22.2994 64.2424 22.7134" stroke="white"/>
<path d="M48.3405 34.7195C48.3405 36.7518 48.4283 39.0353 47.172 40.5156C45.4601 42.5329 41.97 43.4137 38.9924 43.4137C36.0147 43.4137 32.9142 42.5329 31.2023 40.5156C29.946 39.0353 29.6443 36.7518 29.6443 34.7195C29.6443 31.7348 31.0754 29.661 33.5393 28.0954C35.0392 27.1424 37.0388 26.4394 38.9924 26.4394C40.946 26.4394 42.5561 27.1424 44.0559 28.0954C46.5198 29.661 48.3405 31.7348 48.3405 34.7195Z" fill="white"/>
<path d="M38.9924 32.6495V38.4456" stroke="black"/>
<path d="M39.7714 32.6495V38.4456" stroke="black"/>
<path d="M39.7714 37.6176C39.2521 37.9674 37.746 38.6145 35.8763 38.4046" stroke="black"/>
<path d="M38.9924 37.6176C39.5117 37.9674 41.0178 38.6145 42.8874 38.4046" stroke="black"/>
<ellipse cx="38.9924" cy="30.9935" rx="4.67405" ry="2.48404" fill="black"/>
<ellipse cx="49.1195" cy="26.8534" rx="3.11603" ry="3.31205" fill="white"/>
<ellipse cx="28.8653" cy="26.8534" rx="3.11603" ry="3.31205" fill="white"/>
<ellipse cx="28.8653" cy="26.8534" rx="2.33703" ry="2.48404" fill="black"/>
<ellipse cx="27.6968" cy="25.6114" rx="1.16851" ry="1.24202" fill="white"/>
<ellipse cx="49.1195" cy="26.8534" rx="2.33703" ry="2.48404" fill="black"/>
<ellipse cx="47.951" cy="25.6114" rx="1.16851" ry="1.24202" fill="white"/>
</svg>
