<svg width="102" height="144" viewBox="0 0 102 144" fill="none" xmlns="http://www.w3.org/2000/svg">
<g filter="url(#filter0_d_36_211)">
<path d="M38.3789 2.66771C39.8615 1.82634 41.9466 0.722079 44.6977 1.0637C48.6925 1.55976 52.188 1.72998 52.188 4.53613C52.188 5.52825 51.7864 6.3162 51.2671 8.00855C57.6809 4.53613 57.1815 0.0715881 74.1596 5.03219L80.864 6.78487C82.5871 7.23533 83.9405 8.56838 84.4171 10.2845L85.6447 14.7054L86.0457 17.3939C86.3941 19.7305 85.0131 22.058 83.4367 23.8176C81.6799 25.7783 80.2946 28.3468 79.6525 29.8352L86.6434 32.3155C93.4346 33.9029 96.1312 37.6068 96.6305 39.2603C97.2963 42.4021 97.5294 48.2886 93.135 46.7013C88.7407 45.1139 85.6447 47.3627 84.646 48.6855C82.9815 50.8351 77.7867 55.7296 70.3234 58.1106C68.9894 60.339 66.2398 63.1863 64.6718 65.0555C62.1751 68.0318 54.6848 67.0397 48.1932 67.5358C45.197 70.0161 38.3059 74.6791 34.7106 73.4885C30.2164 72.0003 29.2177 69.52 25.2229 65.0555C21.2281 60.5909 18.2319 58.6067 12.739 58.1106C7.2461 57.6146 5.24871 53.6461 6.24741 51.1658C7.24612 48.6855 11.2409 47.6934 15.7351 45.2131C17.8922 44.0226 18.9001 43.6994 19.3077 43.7309C19.2274 43.5557 19.1493 43.3835 19.0738 43.2149C18.514 41.9663 17.495 40.9989 16.2565 40.4172C15.2611 39.9496 14.055 39.2897 12.8826 38.3809C12.8335 38.3444 12.7856 38.3068 12.739 38.2682C12.3378 37.9494 12.0269 37.6434 11.7876 37.3522C10.53 35.8224 12.4098 33.7837 14.2215 32.9838L14.9164 32.677C15.4506 32.4411 16.042 32.3663 16.6181 32.4617L26.3599 34.0746C21.2111 32.8591 15.7351 27.6891 15.7351 25.8667C15.7351 23.8825 17.7325 20.4101 20.7287 18.4258C23.7248 16.4416 26.2216 11.481 27.7196 9.99279C29.2177 8.50461 31.4667 6.84981 32.7132 6.02431C33.9366 5.21411 35.715 3.74225 36.9606 3.22973C37.4294 3.03682 37.9379 2.91793 38.3789 2.66771Z" fill="black"/>
<path d="M37.7067 19.914C37.7067 17.2683 38.6055 11.5802 42.2009 9.99279C45.7962 8.4054 49.3583 9.33138 50.6899 9.99279C50.84 9.44626 51.0441 8.7355 51.2671 8.00855M37.7067 19.914C35.8757 18.9219 31.6146 17.5329 29.2177 19.914C26.8208 22.2951 28.219 26.1974 29.2177 27.851C30.7158 29.5045 35.4813 35.5341 36.708 36.284C43.1996 40.2525 33.2125 34.7958 27.7196 34.2997M37.7067 19.914L44.6977 22.8904M27.7196 34.2997C22.2267 33.8037 15.7351 27.851 15.7351 25.8667C15.7351 23.8825 17.7325 20.4101 20.7287 18.4258C23.7248 16.4416 26.2216 11.481 27.7196 9.99279C29.2177 8.50461 31.4667 6.84981 32.7132 6.02431C33.9366 5.21411 35.715 3.74225 36.9606 3.22973C37.4294 3.03682 37.9379 2.91793 38.3789 2.66771C39.8615 1.82634 41.9466 0.722079 44.6977 1.0637C48.6925 1.55976 52.188 1.72998 52.188 4.53613C52.188 5.52825 51.7863 6.3162 51.2671 8.00855M27.7196 34.2997L16.6181 32.4617C16.042 32.3663 15.4506 32.4411 14.9164 32.677L14.2215 32.9838C12.4098 33.7837 10.53 35.8224 11.7876 37.3522C12.0269 37.6434 12.3378 37.9494 12.739 38.2682M12.739 38.2682C13.9561 39.2355 15.2204 39.9305 16.2565 40.4172C17.495 40.9989 18.514 41.9663 19.0738 43.2149C19.2039 43.5051 19.3414 43.8063 19.4852 44.1148M12.739 38.2682C15.7351 40.7485 23.8913 38.9296 26.7209 39.2604L34.7106 42.7328M48.1932 67.5358C41.7016 68.0318 39.7041 63.0712 34.7106 62.0791C29.7171 61.087 26.2216 53.6461 23.7248 51.1658C22.3281 49.7783 20.6873 46.6931 19.4852 44.1148M48.1932 67.5358C54.6848 67.0397 62.1751 68.0318 64.6718 65.0555C66.2398 63.1863 68.9894 60.339 70.3234 58.1106M48.1932 67.5358C45.197 70.0161 38.3059 74.6791 34.7106 73.4885C30.2164 72.0003 29.2177 69.52 25.2229 65.0555C21.2281 60.5909 18.2319 58.6067 12.739 58.1106C7.2461 57.6146 5.24871 53.6461 6.24741 51.1658C7.24612 48.6855 11.2409 47.6934 15.7351 45.2131C19.3305 43.2288 19.7332 43.6541 19.4852 44.1148M62.6744 51.1658C55.6835 51.1658 48.1931 47.1973 46.1957 45.2131M62.6744 51.1658C64.169 51.1658 65.2983 51.2792 66.1699 51.4719M62.6744 51.1658L64.6718 48.6855C66.2698 46.7013 67.3351 44.8116 67.668 44.1148C67.668 42.1659 68.1991 37.4745 70.3234 34.2997M46.1957 45.2131L52.1659 39.7385C52.5118 39.4213 52.9006 39.1544 53.3209 38.9456L62.6744 34.2997L67.668 29.8352M46.1957 45.2131C44.8243 43.8507 46.1508 42.956 44.2948 41.2446M70.3234 58.1106C71.1136 56.7907 71.4071 55.6879 70.6641 55.1343C69.0937 53.9642 69.3753 52.1809 66.1699 51.4719M70.3234 58.1106C77.7867 55.7296 82.9815 50.8351 84.646 48.6855C85.6447 47.3627 88.7407 45.1139 93.135 46.7013C97.5294 48.2886 97.2963 42.4021 96.6305 39.2604C96.1312 37.6068 93.4346 33.9029 86.6434 32.3155L79.6525 29.8352M79.6525 29.8352C78.3209 31.3588 75.1583 35.3768 73.1609 39.2604C70.6641 44.1148 67.668 51.6958 66.1699 51.4719M79.6525 29.8352C80.2946 28.3468 81.6799 25.7783 83.4367 23.8176C85.0131 22.058 86.3941 19.7305 86.0457 17.3939L85.6447 14.7054L84.4171 10.2845C83.9405 8.56837 82.5871 7.23533 80.864 6.78487L74.1596 5.03219C57.1815 0.0715881 57.6809 4.53613 51.2671 8.00855M67.668 29.8352C68.5531 28.0163 70.3234 23.7833 70.3234 21.4022C70.3234 18.4258 72.6615 14.9534 66.1699 11.481M67.668 29.8352L70.3234 34.2997M66.1699 11.481C64.339 10.8196 60.8768 10.3896 61.6757 13.9613C62.6744 18.4258 65.6705 17.9298 62.6744 22.8904C60.2775 26.8588 53.686 33.473 50.6899 36.284L44.2948 41.2446M66.1699 11.481C64.6232 10.6536 63.5301 10.2206 62.6744 10.0408M44.6977 22.8904C43.1996 21.4022 42.2009 18.4258 44.6977 16.4416C47.1945 14.4573 48.1932 11.481 54.6848 11.481C59.6297 11.481 59.9386 9.46609 62.6744 10.0408M44.6977 22.8904C46.1957 24.3785 53.1867 27.3549 54.6848 22.8904C56.1828 18.4258 60.677 18.9219 57.1815 17.9298C54.3852 17.1361 48.5261 18.9219 48.1932 20.4101M34.7106 25.8667C36.2087 27.3549 39.2048 30.7281 39.2048 32.3155C39.2048 33.9029 39.2048 36.9454 39.2048 38.2682C41.9374 39.512 43.4476 40.4634 44.2948 41.2446M76.6563 19.914C77.4886 20.5754 78.6538 22.6919 76.6563 25.8667C74.1596 29.8352 72.9789 30.3313 70.3234 34.2997M62.6744 10.0408C63.8396 9.36338 66.4695 8.00855 67.668 8.00855C69.166 8.00855 73.6602 9.00067 76.6563 11.481" stroke="white" stroke-width="2"/>
<path d="M59.179 67.0397C59.6783 69.3547 60.677 74.2822 60.677 75.4728C60.677 76.9609 59.6783 88.3703 57.1815 92.3388C54.6848 96.3073 51.1893 102.756 47.6938 108.213C44.1983 113.669 40.7029 134.504 40.7029 135" stroke="black" stroke-width="4"/>
<path d="M55.6835 74.9767L58.6796 79.4412" stroke="black"/>
<path d="M59.6783 84.8979L65.6706 81.9216" stroke="black"/>
<path d="M60.677 77.953L55.6835 74.9767" stroke="black"/>
<path d="M53.6861 96.8033L50.6899 92.8348" stroke="black"/>
<path d="M50.6899 92.8348L51.6886 98.7876" stroke="black"/>
<path d="M48.7371 106.449L56.6376 107.992" stroke="black"/>
<path d="M42.7003 120.614L37.7067 116.646" stroke="black"/>
<path d="M36.708 116.616L43.732 117.342" stroke="black"/>
<path d="M56.6822 107.717L47.6938 109.701" stroke="black"/>
<path d="M65.6705 81.9216L60.677 86.8822" stroke="black"/>
</g>
<defs>
<filter id="filter0_d_36_211" x="0.988098" y="6.10352e-05" width="101.012" height="143.176" filterUnits="userSpaceOnUse" color-interpolation-filters="sRGB">
<feFlood flood-opacity="0" result="BackgroundImageFix"/>
<feColorMatrix in="SourceAlpha" type="matrix" values="0 0 0 0 0 0 0 0 0 0 0 0 0 0 0 0 0 0 127 0" result="hardAlpha"/>
<feOffset dy="4"/>
<feGaussianBlur stdDeviation="2"/>
<feComposite in2="hardAlpha" operator="out"/>
<feColorMatrix type="matrix" values="0 0 0 0 0 0 0 0 0 0 0 0 0 0 0 0 0 0 0.25 0"/>
<feBlend mode="normal" in2="BackgroundImageFix" result="effect1_dropShadow_36_211"/>
<feBlend mode="normal" in="SourceGraphic" in2="effect1_dropShadow_36_211" result="shape"/>
</filter>
</defs>
</svg>
