<svg width="68" height="99" viewBox="0 0 68 99" fill="none" xmlns="http://www.w3.org/2000/svg">
<path d="M25.3261 2.09408C26.37 1.50467 27.7958 0.813883 29.6412 1.04611C32.4947 1.4052 34.9914 1.52842 34.9914 3.55973C34.9914 4.27791 34.7045 4.8483 34.3337 6.07336C38.9149 3.55973 38.5582 0.327941 50.6854 3.91883L54.681 4.97739C56.4029 5.43357 57.752 6.77135 58.2228 8.48929L58.8891 10.9211L59.0163 11.7852C59.3585 14.1107 58.0081 16.4971 56.611 18.3874C55.6918 19.631 54.9783 21.0056 54.6089 21.8732L59.6025 23.6687C64.4533 24.8178 66.3794 27.499 66.7361 28.6959C67.2117 30.9702 67.3781 35.2313 64.2393 34.0823C61.1005 32.9332 58.8891 34.561 58.1757 35.5186C56.9868 37.0747 53.2762 40.6177 47.9453 42.3413C46.9924 43.9543 45.0284 46.0155 43.9085 47.3685C42.1251 49.5231 36.7748 48.8049 32.138 49.164C29.9979 50.9594 25.0757 54.3348 22.5076 53.473C19.2974 52.3958 18.5841 50.6003 15.7306 47.3685C12.8772 44.1367 10.7371 42.7004 6.81358 42.3413C2.89007 41.9822 1.46336 39.1095 2.17672 37.314C2.89009 35.5186 5.74353 34.8004 8.95366 33.005C10.4871 32.1473 11.2075 31.9115 11.5013 31.9318C10.9195 30.7694 9.93602 29.87 8.78149 29.2602C8.19625 28.9511 7.54931 28.5567 6.91612 28.0593C6.88107 28.0329 6.84688 28.0057 6.81358 27.9778C6.65615 27.851 6.51818 27.727 6.39745 27.606C5.21642 26.4228 6.72587 24.6655 8.25187 23.9827C8.70951 23.7779 9.21745 23.713 9.71191 23.7959L16.5428 24.9421C12.865 24.0622 8.95366 20.3198 8.95366 19.0005C8.95366 17.5642 10.3804 15.0506 12.5205 13.6142C14.6606 12.1779 16.444 8.58698 17.514 7.50971C18.5841 6.43244 20.1905 5.23456 21.0808 4.637C21.8885 4.09494 23.0348 3.14374 23.9063 2.70982C24.3653 2.48129 24.8796 2.34617 25.3261 2.09408Z" fill="black"/>
<path d="M24.6477 14.6915C24.6477 12.7763 25.2897 8.65879 27.8578 7.50971C30.4259 6.36063 32.9702 7.03093 33.9214 7.50971C34.0285 7.11408 34.1744 6.59958 34.3337 6.07336M24.6477 14.6915C23.3398 13.9733 20.2961 12.9679 18.5841 14.6915C16.872 16.4151 17.8707 19.2399 18.5841 20.4369C19.6541 21.6339 23.0581 25.9986 23.9343 26.5414C28.5712 29.4141 21.4375 25.4641 17.514 25.105M24.6477 14.6915L29.6412 16.846M17.514 25.105C13.5905 24.746 8.95366 20.4369 8.95366 19.0005C8.95366 17.5642 10.3804 15.0506 12.5205 13.6142C14.6606 12.1779 16.444 8.58697 17.514 7.50971C18.5841 6.43244 20.1905 5.23456 21.0808 4.637C21.8885 4.09494 23.0348 3.14374 23.9063 2.70982C24.3653 2.48129 24.8796 2.34617 25.3261 2.09408C26.37 1.50467 27.7958 0.813883 29.6412 1.04611C32.4947 1.4052 34.9914 1.52842 34.9914 3.55973C34.9914 4.27791 34.7045 4.8483 34.3337 6.07336M17.514 25.105L9.71191 23.7959C9.21745 23.713 8.70951 23.7779 8.25187 23.9827V23.9827C6.72587 24.6655 5.21642 26.4228 6.39745 27.606C6.51818 27.727 6.65615 27.851 6.81358 27.9777M6.81358 27.9777C7.47918 28.5138 8.16462 28.9344 8.78149 29.2602C9.99147 29.8993 11.0135 30.8565 11.5824 32.1011C11.5989 32.1372 11.6155 32.1735 11.6323 32.2099M6.81358 27.9777C8.95368 29.7732 14.7795 28.4565 16.8007 28.6959L22.5076 31.2095M32.138 49.164C27.5011 49.5231 26.0744 45.9322 22.5076 45.214C18.9408 44.4958 16.444 39.1095 14.6606 37.314C13.6629 36.3097 12.4909 34.0763 11.6323 32.2099M32.138 49.164C36.7748 48.8049 42.1251 49.5231 43.9085 47.3685C45.0284 46.0155 46.9924 43.9543 47.9453 42.3413M32.138 49.164C29.9979 50.9594 25.0757 54.3348 22.5076 53.473C19.2974 52.3958 18.5841 50.6003 15.7306 47.3685C12.8772 44.1367 10.7371 42.7004 6.81358 42.3413C2.89007 41.9822 1.46336 39.1095 2.17672 37.314C2.89009 35.5186 5.74353 34.8004 8.95366 33.005C11.5218 31.5686 11.8095 31.8765 11.6323 32.2099M42.4817 37.314C37.4882 37.314 32.138 34.4413 30.7112 33.005M42.4817 37.314C43.5493 37.314 44.356 37.3961 44.9785 37.5357M42.4817 37.314L43.9085 35.5186C45.0498 34.0823 45.8108 32.7143 46.0486 32.2099C46.0486 30.7992 46.4279 27.4032 47.9453 25.105M30.7112 33.005L34.8274 29.1798C35.1728 28.8588 35.5618 28.5883 35.983 28.3763L42.4817 25.105L46.0486 21.8732M30.7112 33.005C29.7317 32.0188 30.6791 31.3712 29.3534 30.1323M47.9453 42.3413C48.5097 41.3858 48.7194 40.5875 48.1886 40.1868C47.0669 39.3398 47.2681 38.0489 44.9785 37.5357M47.9453 42.3413C53.2762 40.6177 56.9868 37.0747 58.1757 35.5186C58.8891 34.561 61.1005 32.9332 64.2393 34.0823C67.3781 35.2313 67.2117 30.9702 66.7361 28.6959C66.3794 27.499 64.4533 24.8178 59.6025 23.6687L54.6089 21.8732M54.6089 21.8732C53.6578 22.9761 51.3988 25.8847 49.9721 28.6959C48.1886 32.2099 46.0486 37.6977 44.9785 37.5357M54.6089 21.8732C54.9783 21.0056 55.6918 19.631 56.611 18.3874C58.0081 16.4971 59.3585 14.1107 59.0163 11.7852L58.8891 10.921L58.2228 8.48929C57.752 6.77135 56.4029 5.43357 54.681 4.97739L50.6854 3.91883C38.5582 0.327941 38.9149 3.55973 34.3337 6.07336M46.0486 21.8732C46.6808 20.5566 47.9453 17.4924 47.9453 15.7687C47.9453 13.6142 49.6154 11.1006 44.9785 8.58697M46.0486 21.8732L47.9453 25.105M44.9785 8.58697C43.6707 8.10819 41.1977 7.79698 41.7684 10.3824C42.4817 13.6142 44.6218 13.2551 42.4817 16.846C40.7697 19.7187 36.0615 24.5066 33.9214 26.5414L29.3534 30.1323M44.9785 8.58697C43.8737 7.98809 43.0929 7.67458 42.4817 7.54446M29.6412 16.846C28.5712 15.7687 27.8578 13.6142 29.6412 12.1779C31.4246 10.7415 32.138 8.58697 36.7748 8.58697C40.3069 8.58697 40.5276 7.12844 42.4817 7.54446M29.6412 16.846C30.7112 17.9233 35.7048 20.0778 36.7748 16.846C37.8449 13.6142 41.055 13.9733 38.5582 13.2551C36.5608 12.6806 32.3758 13.9733 32.138 15.0506M22.5076 19.0005C23.5776 20.0778 25.7177 22.5196 25.7177 23.6687C25.7177 24.8178 25.7177 27.0202 25.7177 27.9777C27.6696 28.8781 28.7483 29.5668 29.3534 30.1323M52.4688 14.6915C53.0633 15.1703 53.8955 16.7024 52.4688 19.0005C50.6854 21.8732 49.842 22.2323 47.9453 25.105M42.4817 7.54446C43.314 7.05409 45.1925 6.07336 46.0486 6.07336C47.1186 6.07336 50.3287 6.79153 52.4688 8.58697" stroke="white" stroke-width="2"/>
<path d="M39.985 48.8049C40.3417 50.4806 41.055 54.0476 41.055 54.9094C41.055 55.9866 40.3417 64.2457 38.5582 67.1184C36.7748 69.9911 34.2781 74.6592 31.7813 78.6092C29.2845 82.5592 26.7878 97.6409 26.7878 98" stroke="black" stroke-width="4"/>
<path d="M37.4882 54.5503L39.6283 57.7821" stroke="black"/>
<path d="M40.3417 61.7321L44.6218 59.5775" stroke="black"/>
<path d="M41.055 56.7048L37.4882 54.5503" stroke="black"/>
<path d="M36.0615 70.3502L33.9214 67.4775" stroke="black"/>
<path d="M33.9214 67.4775L34.6347 71.7865" stroke="black"/>
<path d="M32.5265 77.3324L38.1697 78.4497" stroke="black"/>
<path d="M28.2145 87.5865L24.6477 84.7137" stroke="black"/>
<path d="M23.9343 84.6922L28.9514 85.218" stroke="black"/>
<path d="M38.2016 78.2501L31.7813 79.6865" stroke="black"/>
<path d="M44.6218 59.5775L41.055 63.1684" stroke="black"/>
</svg>
