<svg width="76" height="107" viewBox="0 0 76 107" fill="none" xmlns="http://www.w3.org/2000/svg">
<g filter="url(#filter0_d_3_53)">
<path d="M29.3261 2.09408C30.37 1.50467 31.7958 0.813883 33.6412 1.04611C36.4947 1.4052 38.9914 1.52842 38.9914 3.55973C38.9914 4.27791 38.7045 4.8483 38.3337 6.07336C42.9149 3.55973 42.5582 0.327941 54.6854 3.91883L58.681 4.97739C60.4029 5.43357 61.752 6.77135 62.2228 8.48929L62.8891 10.9211L63.0163 11.7852C63.3585 14.1107 62.0081 16.4971 60.611 18.3874C59.6918 19.631 58.9783 21.0056 58.6089 21.8732L63.6025 23.6687C68.4533 24.8178 70.3794 27.499 70.7361 28.6959C71.2117 30.9702 71.3781 35.2313 68.2393 34.0823C65.1005 32.9332 62.8891 34.561 62.1757 35.5186C60.9868 37.0747 57.2762 40.6177 51.9453 42.3413C50.9924 43.9543 49.0284 46.0155 47.9085 47.3685C46.1251 49.5231 40.7748 48.8049 36.138 49.164C33.9979 50.9594 29.0757 54.3348 26.5076 53.473C23.2974 52.3958 22.5841 50.6003 19.7306 47.3685C16.8772 44.1367 14.7371 42.7004 10.8136 42.3413C6.89007 41.9822 5.46336 39.1095 6.17672 37.314C6.89009 35.5186 9.74353 34.8004 12.9537 33.005C14.4871 32.1473 15.2075 31.9115 15.5013 31.9318C14.9195 30.7694 13.936 29.87 12.7815 29.2602C12.1963 28.9511 11.5493 28.5567 10.9161 28.0593C10.8811 28.0329 10.8469 28.0057 10.8136 27.9778C10.6561 27.851 10.5182 27.727 10.3975 27.606C9.21642 26.4228 10.7259 24.6655 12.2519 23.9827C12.7095 23.7779 13.2175 23.713 13.7119 23.7959L20.5428 24.9421C16.865 24.0622 12.9537 20.3198 12.9537 19.0005C12.9537 17.5642 14.3804 15.0506 16.5205 13.6142C18.6606 12.1779 20.444 8.58698 21.514 7.50971C22.5841 6.43244 24.1905 5.23456 25.0808 4.637C25.8885 4.09494 27.0348 3.14374 27.9063 2.70982C28.3653 2.48129 28.8796 2.34617 29.3261 2.09408Z" fill="black"/>
<path d="M28.6477 14.6915C28.6477 12.7763 29.2897 8.65879 31.8578 7.50971C34.4259 6.36063 36.9702 7.03093 37.9214 7.50971C38.0285 7.11408 38.1744 6.59958 38.3337 6.07336M28.6477 14.6915C27.3398 13.9733 24.2961 12.9679 22.5841 14.6915C20.872 16.4151 21.8707 19.2399 22.5841 20.4369C23.6541 21.6339 27.0581 25.9986 27.9343 26.5414C32.5712 29.4141 25.4375 25.4641 21.514 25.105M28.6477 14.6915L33.6412 16.846M21.514 25.105C17.5905 24.746 12.9537 20.4369 12.9537 19.0005C12.9537 17.5642 14.3804 15.0506 16.5205 13.6142C18.6606 12.1779 20.444 8.58697 21.514 7.50971C22.5841 6.43244 24.1905 5.23456 25.0808 4.637C25.8885 4.09494 27.0348 3.14374 27.9063 2.70982C28.3653 2.48129 28.8796 2.34617 29.3261 2.09408C30.37 1.50467 31.7958 0.813883 33.6412 1.04611C36.4947 1.4052 38.9914 1.52842 38.9914 3.55973C38.9914 4.27791 38.7045 4.8483 38.3337 6.07336M21.514 25.105L13.7119 23.7959C13.2175 23.713 12.7095 23.7779 12.2519 23.9827V23.9827C10.7259 24.6655 9.21642 26.4228 10.3975 27.606C10.5182 27.727 10.6561 27.851 10.8136 27.9777M10.8136 27.9777C11.4792 28.5138 12.1646 28.9344 12.7815 29.2602C13.9915 29.8993 15.0135 30.8565 15.5824 32.1011C15.5989 32.1372 15.6155 32.1735 15.6323 32.2099M10.8136 27.9777C12.9537 29.7732 18.7795 28.4565 20.8007 28.6959L26.5076 31.2095M36.138 49.164C31.5011 49.5231 30.0744 45.9322 26.5076 45.214C22.9408 44.4958 20.444 39.1095 18.6606 37.314C17.6629 36.3097 16.4909 34.0763 15.6323 32.2099M36.138 49.164C40.7748 48.8049 46.1251 49.5231 47.9085 47.3685C49.0284 46.0155 50.9924 43.9543 51.9453 42.3413M36.138 49.164C33.9979 50.9594 29.0757 54.3348 26.5076 53.473C23.2974 52.3958 22.5841 50.6003 19.7306 47.3685C16.8772 44.1367 14.7371 42.7004 10.8136 42.3413C6.89007 41.9822 5.46336 39.1095 6.17672 37.314C6.89009 35.5186 9.74353 34.8004 12.9537 33.005C15.5218 31.5686 15.8095 31.8765 15.6323 32.2099M46.4817 37.314C41.4882 37.314 36.138 34.4413 34.7112 33.005M46.4817 37.314C47.5493 37.314 48.356 37.3961 48.9785 37.5357M46.4817 37.314L47.9085 35.5186C49.0498 34.0823 49.8108 32.7143 50.0486 32.2099C50.0486 30.7992 50.4279 27.4032 51.9453 25.105M34.7112 33.005L38.8274 29.1798C39.1728 28.8588 39.5618 28.5883 39.983 28.3763L46.4817 25.105L50.0486 21.8732M34.7112 33.005C33.7317 32.0188 34.6791 31.3712 33.3534 30.1323M51.9453 42.3413C52.5097 41.3858 52.7194 40.5875 52.1886 40.1868C51.0669 39.3398 51.2681 38.0489 48.9785 37.5357M51.9453 42.3413C57.2762 40.6177 60.9868 37.0747 62.1757 35.5186C62.8891 34.561 65.1005 32.9332 68.2393 34.0823C71.3781 35.2313 71.2117 30.9702 70.7361 28.6959C70.3794 27.499 68.4533 24.8178 63.6025 23.6687L58.6089 21.8732M58.6089 21.8732C57.6578 22.9761 55.3988 25.8847 53.9721 28.6959C52.1886 32.2099 50.0486 37.6977 48.9785 37.5357M58.6089 21.8732C58.9783 21.0056 59.6918 19.631 60.611 18.3874C62.0081 16.4971 63.3585 14.1107 63.0163 11.7852L62.8891 10.921L62.2228 8.48929C61.752 6.77135 60.4029 5.43357 58.681 4.97739L54.6854 3.91883C42.5582 0.327941 42.9149 3.55973 38.3337 6.07336M50.0486 21.8732C50.6808 20.5566 51.9453 17.4924 51.9453 15.7687C51.9453 13.6142 53.6154 11.1006 48.9785 8.58697M50.0486 21.8732L51.9453 25.105M48.9785 8.58697C47.6707 8.10819 45.1977 7.79698 45.7684 10.3824C46.4817 13.6142 48.6218 13.2551 46.4817 16.846C44.7697 19.7187 40.0615 24.5066 37.9214 26.5414L33.3534 30.1323M48.9785 8.58697C47.8737 7.98809 47.0929 7.67458 46.4817 7.54446M33.6412 16.846C32.5712 15.7687 31.8578 13.6142 33.6412 12.1779C35.4246 10.7415 36.138 8.58697 40.7748 8.58697C44.3069 8.58697 44.5276 7.12844 46.4817 7.54446M33.6412 16.846C34.7112 17.9233 39.7048 20.0778 40.7748 16.846C41.8449 13.6142 45.055 13.9733 42.5582 13.2551C40.5608 12.6806 36.3758 13.9733 36.138 15.0506M26.5076 19.0005C27.5776 20.0778 29.7177 22.5196 29.7177 23.6687C29.7177 24.8178 29.7177 27.0202 29.7177 27.9777C31.6696 28.8781 32.7483 29.5668 33.3534 30.1323M56.4688 14.6915C57.0633 15.1703 57.8955 16.7024 56.4688 19.0005C54.6854 21.8732 53.842 22.2323 51.9453 25.105M46.4817 7.54446C47.314 7.05409 49.1925 6.07336 50.0486 6.07336C51.1186 6.07336 54.3287 6.79153 56.4688 8.58697" stroke="white" stroke-width="2"/>
<path d="M43.985 48.8049C44.3417 50.4806 45.055 54.0476 45.055 54.9094C45.055 55.9866 44.3417 64.2457 42.5582 67.1184C40.7748 69.9911 38.2781 74.6592 35.7813 78.6092C33.2845 82.5592 30.7878 97.6409 30.7878 98" stroke="black" stroke-width="4"/>
<path d="M41.4882 54.5503L43.6283 57.7821" stroke="black"/>
<path d="M44.3417 61.7321L48.6218 59.5775" stroke="black"/>
<path d="M45.055 56.7048L41.4882 54.5503" stroke="black"/>
<path d="M40.0615 70.3502L37.9214 67.4775" stroke="black"/>
<path d="M37.9214 67.4775L38.6347 71.7865" stroke="black"/>
<path d="M36.5265 77.3324L42.1697 78.4497" stroke="black"/>
<path d="M32.2145 87.5865L28.6477 84.7137" stroke="black"/>
<path d="M27.9343 84.6922L32.9514 85.218" stroke="black"/>
<path d="M42.2016 78.2501L35.7813 79.6865" stroke="black"/>
<path d="M48.6218 59.5775L45.055 63.1684" stroke="black"/>
</g>
<defs>
<filter id="filter0_d_3_53" x="0.989081" y="0" width="75.0108" height="106.191" filterUnits="userSpaceOnUse" color-interpolation-filters="sRGB">
<feFlood flood-opacity="0" result="BackgroundImageFix"/>
<feColorMatrix in="SourceAlpha" type="matrix" values="0 0 0 0 0 0 0 0 0 0 0 0 0 0 0 0 0 0 127 0" result="hardAlpha"/>
<feOffset dy="4"/>
<feGaussianBlur stdDeviation="2"/>
<feComposite in2="hardAlpha" operator="out"/>
<feColorMatrix type="matrix" values="0 0 0 0 0 0 0 0 0 0 0 0 0 0 0 0 0 0 0.25 0"/>
<feBlend mode="normal" in2="BackgroundImageFix" result="effect1_dropShadow_3_53"/>
<feBlend mode="normal" in="SourceGraphic" in2="effect1_dropShadow_3_53" result="shape"/>
</filter>
</defs>
</svg>
