<svg width="124" height="143" viewBox="0 0 124 143" fill="none" xmlns="http://www.w3.org/2000/svg">
<g filter="url(#filter0_d_36_224)">
<path d="M5 37.7304C6.59813 35.9601 11.15 33.1947 15.1215 31.2395C17.4299 29.548 22.0467 26.696 23.1121 26.0862C23.8131 25.6851 29.5229 23.034 34.8318 21.2083C37.2469 20.3777 39.6539 19.778 41.4577 19.379L41.6821 16.1792C41.7319 15.469 41.848 14.7626 42.0845 14.0911C43.7886 9.25355 46.9549 6.57185 49.7477 4.74518C53.4766 2.30621 58.8037 1.08672 60.9346 1.08672C63.0654 1.08672 68.9252 -0.132775 76.9159 6.5744C78.9351 8.2693 80.4653 10.8356 81.1776 12.6719C82.2779 15.5086 82.6965 18.1836 82.4255 19.87C86.8509 21.0007 91.9959 22.3684 94.4953 23.0375C95.6509 23.3469 100.24 25.2991 102.486 26.696C104.894 28.1932 107.499 30.0632 109.196 31.1088C109.277 31.1544 109.349 31.198 109.411 31.2395C111.542 32.6557 118.645 36.1568 119 37.7304C118.822 39.894 118.467 40.8184 116.336 43.7688C115.338 45.1511 112.607 47.5059 105.682 49.8662C105.498 49.9289 105.321 49.99 105.15 50.0496C98.8622 52.235 100.647 52.4112 91.8318 54.1344C86.1854 55.2382 83.2311 55.6996 80.6449 56.0336L101.953 118.767C100.888 120.597 100.355 121.816 96.0935 124.865C95.5991 125.218 91.2991 127.768 88.6355 128.429C84.9065 129.743 85.4392 129.743 81.7103 130.962C81.4428 131.05 76.7105 132.209 74.785 132.516C71.4254 133.053 66.0728 133.556 62 133.969C59.4662 134.226 50.8131 132.791 49.7477 132.791C47.2356 132.791 38.5607 129.743 35.0289 127.913C34.7069 127.87 30.1851 124.949 30.0374 124.865C27.9065 123.645 25.7757 122.019 22.5794 118.767L43.3551 56.8194C41.0524 56.4712 38.7122 56.016 36.4299 55.4326C30.9914 54.0424 24.8959 52.6523 20.9813 51.5479C19.9111 51.2459 19.004 50.9654 18.3178 50.712C15.1215 49.5319 9.79439 45.4013 8.19626 44.2212L5 40.0907V37.7304Z" fill="black"/>
<path d="M5 37.7304C6.59813 35.9601 11.15 33.1947 15.1215 31.2395M5 37.7304V40.0907L8.19626 44.2212C9.79439 45.4013 15.1215 49.5319 18.3178 50.712C19.004 50.9654 19.9111 51.2459 20.9813 51.5479M5 37.7304L9.79439 41.3298C11.6858 42.2936 16.7843 44.5413 17.785 44.5413M15.1215 31.2395C17.4299 29.548 22.0467 26.696 23.1121 26.0862C23.8131 25.6851 29.5229 23.034 34.8318 21.2083C37.2469 20.3777 39.654 19.778 41.4577 19.379M15.1215 31.2395C16.8741 30.3767 19.3524 29.3532 22.0467 28.3451M62.5327 21.2083V35.8421M62.5327 21.2083C58.2869 21.2083 48.7274 22.1376 41.757 23.0985M62.5327 21.2083C66.6865 21.2083 75.6084 21.5048 82.7757 22.9517M109.411 31.2395C111.542 32.6557 118.645 36.1568 119 37.7304M109.411 31.2395C107.724 30.2255 104.998 28.2578 102.486 26.696C100.24 25.2991 95.6509 23.3469 94.4953 23.0375C90.2336 21.8967 78.2809 18.7249 75.3178 18.1596C72.1215 17.5498 66.8377 17.1936 60.9346 16.9401C54.0555 16.6446 46.8177 18.1595 44.4206 18.7693C44.1908 18.8277 43.0633 19.0239 41.4577 19.379M109.411 31.2395C108.548 30.6662 105.91 29.6865 102.486 28.5669M119 37.7304C118.822 39.894 118.467 40.8184 116.336 43.7688C115.338 45.1511 112.607 47.5059 105.682 49.8662C105.498 49.9289 105.321 49.99 105.15 50.0496M119 37.7304L115.637 40.2549C114.69 40.9658 113.625 41.503 112.49 41.8412L106.022 43.7688M62 44.2212C61.6783 44.2212 60.2399 44.2911 58.271 44.4391M62 44.2212V133.969M62 44.2212C62.2188 44.2212 63.6955 44.2477 65.729 44.3635M79.5794 53.5247C80.6449 53.5247 85.4392 51.6955 85.4392 49.8662C85.4392 48.3404 79.4942 46.5567 76.9159 45.8682M79.5794 53.5247L76.9159 45.8682M79.5794 53.5247L80.6449 56.0336M44.4206 53.5247C42.8224 53.3215 40.0523 51.3296 39.6262 49.8662C39.6262 49.2565 40.4501 48.0644 43.3551 46.8175C44.3631 46.3849 45.8776 46.0117 47.6168 45.6939M44.4206 53.5247L47.6168 45.6939M44.4206 53.5247L43.3551 56.8194M20.9813 51.5479C24.8959 52.6523 30.9914 54.0424 36.4299 55.4326C38.7122 56.016 41.0524 56.4712 43.3551 56.8194M20.9813 51.5479L18.8505 49.8662L17.2523 47.4273C16.7196 45.598 18.4243 42.7932 20.9813 41.3298C24.1776 39.5006 33.8484 37.6401 35.3645 37.0616C36.2176 36.7361 41.3087 36.2369 46.363 35.8421M105.15 50.0496C98.8622 52.235 100.647 52.4112 91.8318 54.1344C86.1854 55.2382 83.2311 55.6996 80.6449 56.0336M105.15 50.0496L106.922 47.4929C107.502 46.6561 107.707 45.6474 107.055 44.8655C106.772 44.5266 106.422 44.1549 106.022 43.7688M43.3551 56.8194L22.5794 118.767C25.7757 122.019 27.9065 123.645 30.0374 124.865C30.1851 124.949 34.7069 127.87 35.0289 127.913M49.7477 132.791C47.2356 132.791 38.5607 129.743 35.0289 127.913M49.7477 132.791L58.271 44.4391M49.7477 132.791C50.8131 132.791 59.4662 134.226 62 133.969M80.6449 56.0336L101.953 118.767C100.888 120.597 100.355 121.816 96.0935 124.865C95.5991 125.218 91.2991 127.768 88.6355 128.429M76.9159 45.8682C76.4033 45.7313 76.0237 45.6377 75.8505 45.598C74.5368 45.2973 73.0612 45.0612 71.5754 44.8761M47.6168 45.6939C49.4322 45.3623 51.4923 45.0912 53.4766 44.8761M53.4766 44.8761L35.0289 127.913M53.4766 44.8761C55.2024 44.689 56.8708 44.5443 58.271 44.4391M62 133.969C66.0728 133.556 71.4254 133.053 74.785 132.516M65.729 44.3635L74.785 132.516M65.729 44.3635C67.4259 44.4601 69.5105 44.6188 71.5754 44.8761M74.785 132.516C76.7105 132.209 81.4428 131.05 81.7103 130.962C85.4392 129.743 84.9065 129.743 88.6355 128.429M71.5754 44.8761L88.6355 128.429M41.4577 19.379L41.6821 16.1792C41.7319 15.469 41.848 14.7626 42.0845 14.0911C43.7886 9.25355 46.9549 6.57185 49.7477 4.74518C53.4766 2.30621 58.8037 1.08672 60.9346 1.08672C63.0654 1.08672 68.9252 -0.132775 76.9159 6.5744C78.9351 8.2693 80.4653 10.8356 81.1776 12.6719C82.4535 15.9613 82.8128 19.0333 82.243 20.5985M22.0467 28.3451C26.7231 26.5956 32.0503 24.8928 35.3645 24.1586C36.8318 23.8336 39.1073 23.4638 41.757 23.0985M22.0467 28.3451C22.0467 29.0149 22.1533 30.5983 22.5794 31.5739C23.1121 32.7934 24.1776 34.0129 25.243 35.2324C26.0953 36.208 28.0841 38.0778 28.972 38.8908M41.757 23.0985C41.757 23.8912 42.929 28.7691 43.3551 29.7447C43.8878 30.9642 46.7073 36.4519 46.363 35.8421M46.363 35.8421C50.7767 35.4974 55.1623 35.2324 56.6729 35.2324C57.9372 35.2324 68.2034 35.2324 77.4486 35.8362M82.7757 22.9517C83.6972 23.1377 84.5896 23.3427 85.4392 23.5686C90.723 24.9732 97.4531 26.9212 102.486 28.5669M82.7757 22.9517C82.7757 24.1998 82.243 25.4765 81.7103 27.3057C81.577 27.7634 80.5877 29.8678 79.8228 31.7869C79.2484 33.228 78.5144 34.6203 77.4917 35.787L77.4486 35.8362M77.4486 35.8362C79.8897 35.9956 82.2596 36.1971 84.3738 36.4519C86.4519 36.7022 90.7235 37.1368 94.4953 37.9045M102.486 28.5669C102.308 29.366 101.421 31.2395 100.888 32.1837C100.07 33.6324 96.6262 38.2592 96.0935 38.2592C95.6673 38.2592 94.8505 37.6235 94.4953 37.9045M94.4953 37.9045C96.5725 38.3272 98.4981 38.851 99.8224 39.5006C101.779 40.2471 104.335 42.1361 106.022 43.7688" stroke="white"/>
<ellipse cx="6.36889" cy="3.57609" rx="6.36889" ry="3.57609" transform="matrix(0.875869 -0.48255 0.387643 0.92181 46.5514 8.89557)" fill="white"/>
<ellipse cx="62" cy="12.0621" rx="1.59813" ry="1.82923" fill="white"/>
</g>
<defs>
<filter id="filter0_d_36_224" x="0.5" y="0.500183" width="123.005" height="142" filterUnits="userSpaceOnUse" color-interpolation-filters="sRGB">
<feFlood flood-opacity="0" result="BackgroundImageFix"/>
<feColorMatrix in="SourceAlpha" type="matrix" values="0 0 0 0 0 0 0 0 0 0 0 0 0 0 0 0 0 0 127 0" result="hardAlpha"/>
<feOffset dy="4"/>
<feGaussianBlur stdDeviation="2"/>
<feComposite in2="hardAlpha" operator="out"/>
<feColorMatrix type="matrix" values="0 0 0 0 0 0 0 0 0 0 0 0 0 0 0 0 0 0 0.25 0"/>
<feBlend mode="normal" in2="BackgroundImageFix" result="effect1_dropShadow_36_224"/>
<feBlend mode="normal" in="SourceGraphic" in2="effect1_dropShadow_36_224" result="shape"/>
</filter>
</defs>
</svg>
