<svg width="85" height="99" viewBox="0 0 85 99" fill="none" xmlns="http://www.w3.org/2000/svg">
<path d="M1 27.7883C2.16355 26.4972 5.47763 24.4804 8.36916 23.0544C10.0498 21.8207 13.4112 19.7407 14.1869 19.296C14.6973 19.0034 18.8544 17.0699 22.7196 15.7384C24.478 15.1326 26.2305 14.6953 27.5438 14.4043L27.687 12.358C27.7367 11.6489 27.8488 10.9417 28.0988 10.2763C29.3602 6.9185 31.5988 5.02913 33.5794 3.73145C36.2944 1.95265 40.1729 1.06325 41.7243 1.06325C43.2757 1.06325 47.5421 0.173841 53.3598 5.06554C54.83 6.30167 55.944 8.17335 56.4626 9.51256C57.2637 11.5814 57.5685 13.5324 57.3712 14.7623C60.5932 15.587 64.3391 16.5845 66.1589 17.0725C67.0002 17.2981 70.3411 18.7219 71.9766 19.7407C73.7296 20.8326 75.6262 22.1965 76.8623 22.959C76.921 22.9923 76.9732 23.0241 77.0187 23.0544C78.5701 24.0873 83.7414 26.6407 84 27.7883C83.8707 29.3663 83.6122 30.0405 82.0607 32.1923C81.3339 33.2004 79.3458 34.9179 74.3037 36.6393C74.1699 36.685 74.0407 36.7295 73.9159 36.773C69.3383 38.3669 70.6381 38.4954 64.2196 39.7522C60.1086 40.5572 57.9577 40.8937 56.0748 41.1373L71.5888 86.8904C70.8131 88.2245 70.4252 89.1139 67.3224 91.3374C66.9625 91.5954 63.8318 93.4546 61.8925 93.9366C59.1776 94.8951 59.5654 94.8951 56.8505 95.7845C56.6557 95.8482 53.2103 96.6935 51.8084 96.9178C49.3624 97.3092 45.4653 97.6764 42.5 97.9775C40.6552 98.1649 34.3551 97.1186 33.5794 97.1186C31.7505 97.1186 25.4346 94.8951 22.8632 93.561C22.6287 93.5293 19.3365 91.3991 19.229 91.3374C17.6776 90.448 16.1262 89.2622 13.7991 86.8904L28.9252 41.7104C27.2487 41.4565 25.5449 41.1245 23.8832 40.699C19.9236 39.6851 15.4856 38.6712 12.6355 37.8657C11.8564 37.6455 11.1959 37.4409 10.6963 37.2561C8.36916 36.3954 4.49065 33.3829 3.3271 32.5222L1 29.5097V27.7883Z" fill="black"/>
<path d="M1 27.7883C2.16355 26.4972 5.47763 24.4804 8.36916 23.0544M1 27.7883V29.5097L3.3271 32.5222C4.49065 33.3829 8.36916 36.3954 10.6963 37.2561C11.1959 37.4409 11.8564 37.6455 12.6355 37.8657M1 27.7883L4.49065 30.4135C5.86776 31.1164 9.57981 32.7557 10.3084 32.7557M8.36916 23.0544C10.0498 21.8207 13.4112 19.7407 14.1869 19.296C14.6973 19.0034 18.8544 17.0699 22.7196 15.7384C24.478 15.1326 26.2305 14.6953 27.5438 14.4043M8.36916 23.0544C9.64517 22.4251 11.4495 21.6786 13.4112 20.9434M42.8879 15.7384V26.4112M42.8879 15.7384C39.7966 15.7384 32.8366 16.4162 27.7617 17.117M42.8879 15.7384C45.9121 15.7384 52.4079 15.9546 57.6262 17.0099M77.0187 23.0544C78.5701 24.0873 83.7414 26.6407 84 27.7883M77.0187 23.0544C75.7903 22.3148 73.8053 20.8798 71.9766 19.7407C70.3411 18.7219 67.0002 17.2981 66.1589 17.0725C63.0561 16.2405 54.3536 13.9271 52.1963 13.5149C49.8692 13.0702 46.0222 12.8104 41.7243 12.6255C36.7158 12.41 31.4462 13.5149 29.7009 13.9596C29.5337 14.0022 28.7127 14.1452 27.5438 14.4043M77.0187 23.0544C76.3906 22.6362 74.4696 21.9217 71.9766 21.1052M84 27.7883C83.8707 29.3663 83.6121 30.0405 82.0607 32.1923C81.3339 33.2004 79.3458 34.9179 74.3037 36.6393C74.1699 36.685 74.0407 36.7295 73.9159 36.773M84 27.7883L81.9417 29.3363C80.9943 30.0487 79.9279 30.5871 78.792 30.9262L74.5514 32.1923M42.5 32.5222C42.2658 32.5222 41.2185 32.5732 39.785 32.6811M42.5 32.5222V97.9775M42.5 32.5222C42.6593 32.5222 43.7344 32.5416 45.215 32.626M55.2991 39.3075C56.0748 39.3075 59.5654 37.9734 59.5654 36.6393C59.5654 35.5264 55.237 34.2255 53.3598 33.7234M55.2991 39.3075L53.3598 33.7234M55.2991 39.3075L56.0748 41.1373M29.7009 39.3075C28.5374 39.1593 26.5206 37.7066 26.2103 36.6393C26.2103 36.1946 26.8102 35.3252 28.9252 34.4158C29.6591 34.1003 30.7618 33.828 32.028 33.5963M29.7009 39.3075L32.028 33.5963M29.7009 39.3075L28.9252 41.7104M12.6355 37.8657C15.4856 38.6712 19.9236 39.6851 23.8832 40.699C25.5449 41.1245 27.2487 41.4565 28.9252 41.7104M12.6355 37.8657L11.0841 36.6393L9.92056 34.8605C9.53271 33.5264 10.7738 31.4808 12.6355 30.4135C14.9626 29.0794 22.0036 27.7225 23.1075 27.3006C23.7286 27.0632 27.4353 26.6991 31.1152 26.4112M73.9159 36.773C69.3383 38.3669 70.6381 38.4954 64.2196 39.7522C60.1086 40.5572 57.9577 40.8937 56.0748 41.1373M73.9159 36.773L74.9665 35.2551C75.5451 34.419 75.7143 33.4229 75.0248 32.6756C74.8811 32.5199 74.7224 32.3579 74.5514 32.1923M28.9252 41.7104L13.7991 86.8904C16.1262 89.2622 17.6776 90.448 19.229 91.3374C19.3365 91.3991 22.6287 93.5293 22.8632 93.5609M33.5794 97.1186C31.7505 97.1186 25.4346 94.8951 22.8632 93.5609M33.5794 97.1186L39.785 32.6811M33.5794 97.1186C34.3551 97.1186 40.6552 98.1649 42.5 97.9775M56.0748 41.1373L71.5888 86.8904C70.8131 88.2245 70.4252 89.1139 67.3224 91.3374C66.9625 91.5954 63.8318 93.4546 61.8925 93.9366M53.3598 33.7234C52.9866 33.6236 52.7103 33.5553 52.5841 33.5264C51.6277 33.3071 50.5533 33.1348 49.4716 32.9998M32.028 33.5963C33.3497 33.3545 34.8497 33.1567 36.2944 32.9998M36.2944 32.9998L22.8632 93.5609M36.2944 32.9998C37.5509 32.8634 38.7656 32.7579 39.785 32.6811M42.5 97.9775C45.4653 97.6764 49.3624 97.3092 51.8084 96.9178M45.215 32.626L51.8084 96.9178M45.215 32.626C46.4504 32.6965 47.9682 32.8122 49.4716 32.9998M51.8084 96.9178C53.2103 96.6935 56.6557 95.8482 56.8505 95.7845C59.5654 94.8951 59.1776 94.8951 61.8925 93.9366M49.4716 32.9998L61.8925 93.9366M27.5438 14.4043L27.687 12.358C27.7367 11.6489 27.8488 10.9417 28.0988 10.2763C29.3602 6.9185 31.5988 5.02913 33.5794 3.73145C36.2944 1.95265 40.1729 1.06325 41.7243 1.06325C43.2757 1.06325 47.5421 0.173841 53.3598 5.06554C54.83 6.30167 55.944 8.17335 56.4626 9.51256C57.3916 11.9116 57.6532 14.1521 57.2383 15.2937M13.4112 20.9434C16.8159 19.6675 20.6945 18.4256 23.1075 17.8901C24.1758 17.6531 25.8325 17.3833 27.7617 17.117M13.4112 20.9434C13.4112 21.4319 13.4888 22.5867 13.7991 23.2983C14.1869 24.1877 14.9626 25.0771 15.7383 25.9665C16.3589 26.678 17.8069 28.0417 18.4533 28.6347M27.7617 17.117C27.7617 17.6951 28.615 21.2526 28.9252 21.9642C29.3131 22.8536 31.3658 26.8559 31.1152 26.4112M31.1152 26.4112C34.3287 26.1598 37.5217 25.9665 38.6215 25.9665C39.542 25.9665 47.0165 25.9665 53.7477 26.4068M57.6262 17.0099C58.2971 17.1455 58.9468 17.2951 59.5654 17.4598C63.4123 18.4842 68.3124 19.905 71.9766 21.1052M57.6262 17.0099C57.6262 17.9201 57.2383 18.8513 56.8505 20.1854C56.7544 20.5157 56.048 22.0223 55.4936 23.4101C55.0625 24.4892 54.5129 25.5323 53.7477 26.4068V26.4068M53.7477 26.4068C55.5249 26.5231 57.2504 26.6701 58.7897 26.8559C60.3027 27.0385 63.4127 27.3554 66.1589 27.9153M71.9766 21.1052C71.8474 21.688 71.2009 23.0544 70.8131 23.743C70.2179 24.7996 67.7103 28.174 67.3224 28.174C67.0121 28.174 66.4174 27.7104 66.1589 27.9153M66.1589 27.9153C67.6712 28.2236 69.0732 28.6056 70.0374 29.0794C71.4619 29.6238 73.3225 31.0015 74.5514 32.1923" stroke="white"/>
<ellipse cx="4.63886" cy="2.60745" rx="4.63886" ry="2.60745" transform="matrix(0.875517 -0.483186 0.387077 0.922048 31.2523 6.75841)" fill="white"/>
<ellipse cx="42.5" cy="9.06785" rx="1.16355" ry="1.3341" fill="white"/>
</svg>
