<svg width="80" height="105" viewBox="0 0 80 105" fill="none" xmlns="http://www.w3.org/2000/svg">
<g filter="url(#filter0_d_4_99)">
<path d="M39.1834 1.00001L39.2594 1.00001C41.8384 0.99951 45.2403 0.998858 50.5709 6.01231C57.2999 12.3409 54.2715 33.1906 57.2999 35.5641C60.4056 37.9982 67.6522 52.1159 68.6875 57.9578C69.7227 63.7996 66.617 67.2073 70.7579 71.1019L74.8988 74.9964C73.6911 76.2946 70.4473 78.4041 71.2755 80.3514C72.1037 82.2987 73.0009 84.0837 73.346 84.7328C73.1735 85.2196 72.4143 86.1932 70.7579 86.1932C68.6875 86.1932 70.2403 83.2723 68.1698 84.7328C67.733 85.0409 64.6086 86.0247 64.0819 85.9333C62.7452 85.7014 61.4082 85.7678 60.9232 86.68C59.888 88.6273 54.1942 95.9296 53.159 95.9296C52.1238 95.9296 46.9476 96.9032 45.3947 95.9296C44.1525 95.1507 39.701 89.1141 37.6305 86.1932C36.7678 85.2196 34.3178 83.8565 31.4191 86.1932C27.7958 89.1141 26.243 94.4691 24.1725 93.4955C22.102 92.5219 14.8554 87.6537 13.8202 86.68C12.7849 85.7064 12.2673 81.325 11.7497 81.8119C11.2321 82.2987 7.09117 78.891 6.57355 81.8119C6.05594 84.7328 4.50309 77.9173 9.67925 71.5887C12.4386 68.2149 13.727 66.2246 14.5638 64.7328C12.9511 67.0695 10.6732 69.6414 8.64402 69.6414C6.89162 69.6414 5.97352 69.8158 5.49742 70.0538C5.18558 70.7989 5.0207 71.2605 5.0207 71.1019C5.0207 70.8211 4.84849 70.3783 5.49742 70.0538C6.1426 68.5124 7.41687 65.7578 9.16164 64.7732C11.7497 63.3128 7.60879 61.8523 9.67925 56.9841C11.7497 52.1159 16.4083 51.6291 16.9259 46.2741C17.0594 44.8929 17.5029 42.8314 18.1319 40.4323C19.9416 33.5304 23.2872 23.8341 25.2077 19.4991C27.7958 13.6573 27.2782 6.35502 31.4191 3.43411C34.7319 1.09738 37.1129 1.00003 39.1834 1.00001Z" fill="black"/>
<path d="M71.2755 80.3514C70.4474 78.4041 73.6911 76.2946 74.8988 74.9964C75.2439 75.3209 74.8988 74.9964 70.7579 71.1019C66.617 67.2073 69.7227 63.7996 68.6875 57.9578C67.6522 52.1159 60.4056 37.9982 57.2999 35.5641C54.2715 33.1906 57.2999 12.3409 50.5709 6.01231C45.1877 0.949395 41.7714 1.00001 39.1834 1.00001C37.1129 1.00003 34.7319 1.09738 31.4191 3.43411C27.2782 6.35502 27.7958 13.6573 25.2077 19.4991C23.2872 23.8341 19.9416 33.5304 18.1319 40.4323M71.2755 80.3514C72.1037 82.2987 73.0009 84.0837 73.346 84.7328C73.1735 85.2196 72.4143 86.1932 70.7579 86.1932C68.6875 86.1932 70.2403 83.2723 68.1698 84.7328V84.7328C67.733 85.0409 64.6086 86.0247 64.0819 85.9333C62.7452 85.7014 61.4082 85.7678 60.9232 86.68C59.888 88.6273 54.1942 95.9296 53.159 95.9296C52.1238 95.9296 46.9476 96.9032 45.3947 95.9296C44.1525 95.1507 39.701 89.1141 37.6305 86.1932C36.7678 85.2196 34.3178 83.8565 31.4191 86.1932M71.2755 80.3514C70.4075 80.2153 68.4479 79.007 66.617 75.4063M31.4191 86.1932C27.7958 89.1141 26.243 94.4691 24.1725 93.4955C22.102 92.5219 14.8554 87.6537 13.8202 86.68C12.7849 85.7064 12.2673 81.325 11.7497 81.8119M31.4191 86.1932C31.4191 82.7855 35.0424 63.7996 35.0424 61.8523C35.0424 59.905 36.0777 58.9314 34.5248 55.0369C33.2825 51.9212 33.6621 42.5418 34.5248 37.5114M11.7497 81.8119C11.2321 82.2987 7.09117 78.8909 6.57356 81.8119C6.05594 84.7328 4.50309 77.9173 9.67925 71.5887C14.8554 65.26 14.8554 63.7996 16.4083 61.3655C17.9611 58.9314 12.7849 69.6414 8.64402 69.6414C4.50309 69.6414 5.0207 70.615 5.0207 71.1019C5.0207 71.5887 6.57356 66.2337 9.16164 64.7732C11.7497 63.3128 7.60879 61.8523 9.67925 56.9841C11.7497 52.1159 16.4083 51.6291 16.9259 46.2741C17.0594 44.8929 17.5029 42.8314 18.1319 40.4323M11.7497 81.8119C11.3278 81.325 14.3378 77.9173 14.8554 75.4832C15.2695 73.5359 17.2123 71.1019 18.1319 70.1282C19.1671 68.6678 21.5844 66.7205 22.102 62.3391C22.6196 57.9578 24.6901 56.0105 25.7253 52.1159C26.5535 49.0003 25.6318 44.8137 25.2077 43.84M18.1319 40.4323C18.3631 42.3796 18.7562 46.6636 18.4787 48.2214C18.1319 50.1687 17.9611 52.1159 18.4787 53.5764M31.4191 12.1968C31.074 12.3591 30.0733 13.852 28.831 18.5255C27.2782 24.3673 28.3134 31.6696 27.7958 32.6432C27.3635 33.4565 27.5773 40.2813 25.2077 43.84M22.6196 48.7082C23.3871 48.4676 24.7404 44.5419 25.2077 43.84M41.7714 39.4587C41.7714 39.9455 41.7714 48.2214 45.3947 56.0105C49.0181 63.7996 50.5709 64.7732 51.6061 68.1809C52.6414 71.5887 52.6414 80.8382 51.6061 80.8382C50.916 82.6232 50.1568 86.8748 52.6414 89.601C55.1259 92.3271 55.402 93.3332 55.2294 93.4955M50.0533 26.8014C49.7082 30.3714 49.4321 38.3877 51.0885 41.8928C53.159 46.2741 55.2294 46.7609 56.2647 55.0369C57.2999 63.3128 56.2647 62.3391 57.2999 65.7469C61.4408 72.757 65.2367 75.1074 66.617 75.4063M63.5113 63.7996C63.3388 64.6109 63.5113 67.5968 65.5818 73.0491C65.9162 73.9299 66.2642 74.7125 66.617 75.4063" stroke="white"/>
<ellipse cx="39.1834" cy="16.0914" rx="2.07046" ry="3.89455" fill="white"/>
<ellipse cx="46.43" cy="16.0914" rx="2.07046" ry="3.89455" fill="white"/>
</g>
<defs>
<filter id="filter0_d_4_99" x="0.499985" y="0.5" width="79.1037" height="104.362" filterUnits="userSpaceOnUse" color-interpolation-filters="sRGB">
<feFlood flood-opacity="0" result="BackgroundImageFix"/>
<feColorMatrix in="SourceAlpha" type="matrix" values="0 0 0 0 0 0 0 0 0 0 0 0 0 0 0 0 0 0 127 0" result="hardAlpha"/>
<feOffset dy="4"/>
<feGaussianBlur stdDeviation="2"/>
<feComposite in2="hardAlpha" operator="out"/>
<feColorMatrix type="matrix" values="0 0 0 0 0 0 0 0 0 0 0 0 0 0 0 0 0 0 0.25 0"/>
<feBlend mode="normal" in2="BackgroundImageFix" result="effect1_dropShadow_4_99"/>
<feBlend mode="normal" in="SourceGraphic" in2="effect1_dropShadow_4_99" result="shape"/>
</filter>
</defs>
</svg>
