<svg width="81" height="102" viewBox="0 0 81 102" fill="none" xmlns="http://www.w3.org/2000/svg">
<g filter="url(#filter0_d_4_95)">
<rect x="20.5172" y="46.7258" width="39.7294" height="33.9485" fill="black"/>
<rect x="11.9481" y="56.6619" width="15.5802" height="33.9485" fill="black"/>
<rect x="51.6775" y="56.6619" width="17.1382" height="33.9485" fill="black"/>
<ellipse cx="6.02607" cy="9.08253" rx="6.02607" ry="9.08253" transform="matrix(0.691269 -0.722597 0.679141 0.734008 43.8874 81.931)" fill="black"/>
<ellipse cx="6.02607" cy="9.08253" rx="6.02607" ry="9.08253" transform="matrix(0.691269 -0.722597 0.679141 0.734008 43.8874 81.931)" fill="black"/>
<ellipse cx="6.17572" cy="11.0582" rx="6.17572" ry="11.0582" transform="matrix(0.63252 0.774544 -0.734975 0.678094 29.761 71.5662)" fill="black"/>
<ellipse cx="6.17572" cy="11.0582" rx="6.17572" ry="11.0582" transform="matrix(0.63252 0.774544 -0.734975 0.678094 29.761 71.5662)" fill="black"/>
<ellipse cx="9.94452" cy="11.0582" rx="9.94452" ry="11.0582" transform="matrix(0.63252 0.774544 -0.734975 0.678094 20.4129 66.5981)" fill="black"/>
<ellipse cx="9.94452" cy="11.0582" rx="9.94452" ry="11.0582" transform="matrix(0.63252 0.774544 -0.734975 0.678094 20.4129 66.5981)" fill="black"/>
<path d="M67.7427 90.5405C65.0918 92.6185 60.7283 93.4804 57.9096 92.2665C56.4385 91.633 56.1262 90.0526 55.1188 88.6007C52.1813 84.3669 53.0705 78.371 57.105 75.2085C61.1395 72.0461 66.7914 72.9146 69.7289 77.1484C72.6664 81.3822 71.7772 87.3781 67.7427 90.5405Z" fill="black"/>
<path d="M67.7427 90.5405C65.0918 92.6185 60.7283 93.4804 57.9096 92.2665C56.4385 91.633 56.1262 90.0526 55.1188 88.6007C52.1813 84.3669 53.0705 78.371 57.105 75.2085C61.1395 72.0461 66.7914 72.9146 69.7289 77.1484C72.6664 81.3822 71.7772 87.3781 67.7427 90.5405Z" fill="black"/>
<path d="M72.6094 75.227C68.7134 78.2809 61.2277 74.5198 55.8897 66.8262C50.5517 59.1326 49.3828 50.42 53.2788 47.3661C56.6612 44.7147 57.9338 43.474 62.9731 49.2098C63.7383 50.0808 68.891 55.6477 69.5947 56.6619C74.9327 64.3555 76.5054 72.173 72.6094 75.227Z" fill="black"/>
<path d="M72.6094 75.227C68.7134 78.2809 61.2277 74.5198 55.8897 66.8262C50.5517 59.1326 49.3828 50.42 53.2788 47.3661C56.6612 44.7147 57.9338 43.474 62.9731 49.2098C63.7383 50.0808 68.891 55.6477 69.5947 56.6619C74.9327 64.3555 76.5054 72.173 72.6094 75.227Z" fill="black"/>
<path d="M6.1055 73.2222C4.15798 69.4961 4.93699 61.63 12.7271 55.0059C18.9082 46.8734 27.2474 42.8044 30.8727 45.9174C34.4981 49.0304 32.4262 58.1467 26.245 66.2792C21.8037 72.1226 14.5066 76.8863 10.0005 76.5342C8.2354 76.3963 7.12592 74.0984 6.1055 73.2222Z" fill="black"/>
<path d="M6.1055 73.2222C4.15798 69.4961 4.93699 61.63 12.7271 55.0059C18.9082 46.8734 27.2474 42.8044 30.8727 45.9174C34.4981 49.0304 32.4262 58.1467 26.245 66.2792C21.8037 72.1226 14.5066 76.8863 10.0005 76.5342C8.2354 76.3963 7.12592 74.0984 6.1055 73.2222Z" fill="black"/>
<path d="M52.846 67.8401C52.846 70.2194 52.9629 71.4083 51.288 73.1414C49.0056 75.5031 43.9614 76.5342 39.9915 76.5342C36.0216 76.5342 30.6443 75.7062 28.6968 73.1414C27.0218 71.4083 27.1387 70.2194 27.1387 67.8401C27.1387 64.3458 29.4363 60.4336 32.7213 58.6007C34.7209 57.4849 37.3869 56.6619 39.9915 56.6619C42.5961 56.6619 44.7428 57.4849 46.7424 58.6007C50.0274 60.4336 52.846 64.3458 52.846 67.8401Z" fill="white"/>
<path d="M13.2643 79.3959C15.251 78.712 17.679 79.111 18.6448 79.3959C20.4382 80.1084 23.9424 82.2174 23.6113 84.9534C23.1974 88.3733 22.7835 89.2283 21.9558 89.6558C20.8521 89.9408 18.47 89.6558 16.9892 89.6558C15.7476 89.6558 13.5487 88.8541 12.8505 88.3733C11.6088 87.5183 11.1949 84.5259 11.1949 84.0984C11.1949 83.6709 10.7811 80.2509 13.2643 79.3959Z" fill="white" stroke="white"/>
<path d="M66.4787 79.8463C64.6091 79.1839 62.324 79.5703 61.4151 79.8463C59.7273 80.5363 56.4295 82.5787 56.7411 85.2284C57.1306 88.5404 57.5201 89.3685 58.2991 89.7825C59.3378 90.0585 61.5796 89.7825 62.9731 89.7825C64.1417 89.7825 66.2111 89.0061 66.8682 88.5404C68.0367 87.7124 68.4262 84.8144 68.4262 84.4004C68.4262 83.9864 68.8157 80.6743 66.4787 79.8463Z" fill="white" stroke="white"/>
<path d="M26.7492 6.9811C31.7349 4.33146 34.02 3.255 36.4868 3.255C38.4343 2.84103 43.1084 3.66904 48.172 4.49706C52.846 6.5671 54.7935 8.22313 54.7935 8.22313C55.5726 6.4291 58.1433 2.59263 62.1941 1.59902C66.245 0.605399 70.8931 3.11704 72.7107 4.49706C73.7494 5.32508 76.2163 9.46514 76.2163 11.1212C76.2163 12.7772 76.2163 14.4332 75.8268 16.0892C74.6583 19.4013 72.7107 23.7102 69.2052 24.3694C68.6283 24.4778 66.7383 24.9777 65.6996 24.5382C65.854 25.2009 65.9779 25.7678 66.0891 26.2012C67.2576 30.7553 65.9021 40.3377 65.6996 40.6914C64.1416 43.4137 63.4258 43.3465 62.1941 44.6557C61.7152 45.1647 60.8691 45.6956 59.8571 46.2076C62.8433 49.0023 69.5947 55.9167 72.7108 61.216C75.8268 66.5153 75.3074 70.6001 74.6583 71.9802C74.1389 73.0842 72.7108 75.4578 71.1527 76.1202C70.2341 76.5108 69.812 76.6392 69.6469 76.6525C69.5319 76.6617 69.5414 76.6152 69.5947 76.5624C69.6123 76.5925 69.6297 76.6225 69.6469 76.6525C69.812 76.6392 70.2341 76.5108 71.1527 76.1202C72.7108 75.4578 74.1389 73.0842 74.6583 71.9802C75.3074 70.6001 75.8268 66.5153 72.7108 61.216C69.5947 55.9167 62.8433 49.0023 59.8571 46.2076C56.7538 47.7776 52.0912 49.1698 51.6775 49.2098C47.393 49.6238 33.7603 50.8658 24.8017 47.5538C23.4585 47.0572 22.2992 46.5552 21.2962 46.0448C15.6095 43.1506 14.9473 39.9823 14.2851 35.9616C13.8374 33.2437 14.3559 27.8929 15.3005 23.5413C14.4427 23.6793 12.1818 23.4585 10.0005 21.4713C7.27401 18.9873 6.495 16.5032 5.71599 13.1912C5.30202 11.4311 5.94241 8.96468 6.88452 6.9811C7.36067 5.97856 8.05022 5.09937 8.44253 4.49705C9.61102 2.97904 10.3901 2.01303 13.5061 1.18501C14.6131 0.89086 18.9373 0.990811 19.7382 1.18501C22.3953 1.82933 23.7945 2.68418 25.1912 4.91106C26.1165 6.38628 26.1893 7.1162 26.1199 7.33794C26.3273 7.21294 26.5371 7.09382 26.7492 6.9811Z" fill="black"/>
<path d="M54.7935 8.22313C54.7935 8.22313 52.846 6.5671 48.172 4.49706C43.1084 3.66904 38.4343 2.84103 36.4868 3.255C34.02 3.255 31.7349 4.33146 26.7492 6.9811C26.505 7.11088 26.2639 7.24913 26.0259 7.39509M54.7935 8.22313C55.5726 6.4291 58.1433 2.59263 62.1941 1.59902C66.245 0.605399 70.8931 3.11704 72.7107 4.49706C73.7494 5.32508 76.2163 9.46514 76.2163 11.1212C76.2163 12.7772 76.2163 14.4332 75.8268 16.0892C74.6583 19.4013 72.7107 23.7102 69.2052 24.3694C68.6283 24.4778 66.7383 24.9777 65.6996 24.5382M54.7935 8.22313C54.7935 8.22313 56.1259 9.18314 57.7879 10.7072M65.6996 24.5382C65.854 25.2009 65.9779 25.7678 66.0891 26.2012C67.2576 30.7553 65.902 40.3377 65.6996 40.6914C64.1416 43.4137 63.4258 43.3465 62.1941 44.6557C61.7152 45.1647 60.8691 45.6956 59.8571 46.2076M65.6996 24.5382C65.1592 22.219 64.2453 18.7264 62.1941 15.6752C60.9119 13.7679 59.2264 12.0263 57.7879 10.7072M26.0259 7.39509C26.1372 7.53309 26.4376 6.89829 25.1912 4.91106C23.7945 2.68418 22.3953 1.82933 19.7382 1.18501C18.9373 0.990811 14.6131 0.89086 13.5061 1.18501C10.3901 2.01303 9.61102 2.97904 8.44253 4.49705C8.05022 5.09937 7.36067 5.97856 6.88452 6.9811C5.94241 8.96468 5.30202 11.4311 5.71599 13.1912C6.495 16.5032 7.27401 18.9873 10.0005 21.4713C12.1818 23.4585 14.4427 23.6793 15.3005 23.5413M26.0259 7.39509C25.2461 7.87337 24.5004 8.43441 23.7929 9.05115M15.3005 23.5413C14.3559 27.8929 13.8374 33.2437 14.2851 35.9616C14.9473 39.9822 15.6095 43.1506 21.2962 46.0447M15.3005 23.5413C15.4913 22.6626 15.6994 21.8247 15.9205 21.0573M21.2962 46.0447C22.2992 46.5552 23.4585 47.0572 24.8017 47.5538C33.7603 50.8658 47.393 49.6238 51.6775 49.2098C52.0912 49.1698 56.7538 47.7776 59.8571 46.2076M21.2962 46.0447L13.5061 53.7639C10.9094 56.6619 6.6083 62.5108 5.716 65.3561C4.54749 69.0821 4.93699 71.5662 6.88452 74.0502C8.44253 76.0374 9.87072 76.8102 10.3901 76.9482M10.3901 76.9482C11.0392 75.4302 13.8956 73.2866 18.1801 73.2222C18.7433 73.2137 19.2608 73.2443 19.7382 73.2866M10.3901 76.9482C8.7022 79.1563 6.77713 84.2291 9.22154 88.1264C12.3376 93.0945 18.9376 92.6805 22.4647 92.6805C27.9178 92.6805 34.9288 82.3303 34.5393 80.6743M26.7492 77.7763C25.0028 75.5488 23.8829 73.6542 19.7382 73.2866M26.7492 52.5218C25.0614 54.7299 21.452 60.2224 20.5172 64.528C19.5824 68.8337 19.6083 72.1611 19.7382 73.2866M34.9288 80.6743H45.835C46.7438 83.0203 49.3926 87.7678 51.288 89.7824C53.625 92.2665 60.7898 93.0945 62.1941 93.0945C63.7522 93.0945 69.2052 91.0245 70.7632 88.1264C72.1297 85.5847 71.9317 81.5023 70.7632 79.0183C70.4845 78.4257 70.1505 77.5119 69.5947 76.5624M52.4565 78.1903C52.8168 77.0415 53.5102 74.122 59.4676 73.0348M54.7936 53.3499C56.0919 56.1099 58.8444 62.3752 59.4676 65.3561C60.0908 68.3369 59.7273 71.7173 59.4676 73.0348M59.4676 73.0348C59.9514 72.9466 60.4698 72.8704 61.0256 72.8082C66.1037 72.24 68.3795 74.4865 69.5947 76.5624M59.8571 46.2076C62.8433 49.0023 69.5947 55.9167 72.7108 61.216C75.8268 66.5153 75.3074 70.6001 74.6583 71.9802C74.1389 73.0842 72.7108 75.4578 71.1527 76.1202C69.5947 76.7826 69.4649 76.691 69.5947 76.5624M15.9205 21.0573C16.1428 20.2858 16.3782 19.5856 16.6221 18.9873C17.7511 16.4781 20.3081 12.0889 23.7929 9.05115M15.9205 21.0573C14.7262 20.5053 11.4028 18.4077 10.7796 16.0893C10.0006 13.1912 10.3901 9.87916 12.7271 7.80913C15.0641 5.73909 18.5696 5.73907 20.9067 6.9811C22.7763 7.97473 23.6098 8.77514 23.7929 9.05115M57.7879 10.7072C58.7373 9.32715 62.438 6.73271 65.2424 7.39512C68.7479 8.22313 69.9624 11.005 70.3737 13.1912C70.7632 15.2612 69.5947 18.5733 68.8157 19.8153C68.3326 20.5856 66.0891 22.2994 65.2424 22.7134" stroke="white"/>
<path d="M49.3405 34.7196C49.3405 36.7518 49.4283 39.0353 48.172 40.5156C46.4601 42.5329 42.97 43.4137 39.9924 43.4137C37.0147 43.4137 33.9142 42.5329 32.2023 40.5156C30.946 39.0353 30.6443 36.7518 30.6443 34.7196C30.6443 31.7348 32.0754 29.661 34.5393 28.0954C36.0392 27.1424 38.0388 26.4394 39.9924 26.4394C41.946 26.4394 43.5561 27.1424 45.0559 28.0954C47.5198 29.661 49.3405 31.7348 49.3405 34.7196Z" fill="white"/>
<path d="M39.9924 32.6495V38.4456" stroke="black"/>
<path d="M40.7714 32.6495V38.4456" stroke="black"/>
<path d="M40.7714 37.6176C40.2521 37.9674 38.746 38.6145 36.8763 38.4046" stroke="black"/>
<path d="M39.9924 37.6176C40.5117 37.9674 42.0178 38.6145 43.8874 38.4046" stroke="black"/>
<ellipse cx="39.9924" cy="30.9935" rx="4.67405" ry="2.48404" fill="black"/>
<ellipse cx="50.1195" cy="26.8534" rx="3.11603" ry="3.31205" fill="white"/>
<ellipse cx="29.8653" cy="26.8534" rx="3.11603" ry="3.31205" fill="white"/>
<ellipse cx="29.8653" cy="26.8534" rx="2.33703" ry="2.48404" fill="black"/>
<ellipse cx="28.6968" cy="25.6114" rx="1.16851" ry="1.24202" fill="white"/>
<ellipse cx="50.1195" cy="26.8534" rx="2.33703" ry="2.48404" fill="black"/>
<ellipse cx="48.951" cy="25.6114" rx="1.16851" ry="1.24202" fill="white"/>
</g>
<defs>
<filter id="filter0_d_4_95" x="-3" y="0.5" width="86" height="104.5" filterUnits="userSpaceOnUse" color-interpolation-filters="sRGB">
<feFlood flood-opacity="0" result="BackgroundImageFix"/>
<feColorMatrix in="SourceAlpha" type="matrix" values="0 0 0 0 0 0 0 0 0 0 0 0 0 0 0 0 0 0 127 0" result="hardAlpha"/>
<feOffset dy="4"/>
<feGaussianBlur stdDeviation="2"/>
<feComposite in2="hardAlpha" operator="out"/>
<feColorMatrix type="matrix" values="0 0 0 0 0 0 0 0 0 0 0 0 0 0 0 0 0 0 0.25 0"/>
<feBlend mode="normal" in2="BackgroundImageFix" result="effect1_dropShadow_4_95"/>
<feBlend mode="normal" in="SourceGraphic" in2="effect1_dropShadow_4_95" result="shape"/>
</filter>
</defs>
</svg>
