<svg width="93" height="107" viewBox="0 0 93 107" fill="none" xmlns="http://www.w3.org/2000/svg">
<g filter="url(#filter0_d_4_59)">
<path d="M5 27.7883C6.16355 26.4972 9.47763 24.4804 12.3692 23.0544C14.0498 21.8207 17.4112 19.7407 18.1869 19.296C18.6973 19.0034 22.8544 17.0699 26.7196 15.7384C28.478 15.1326 30.2305 14.6953 31.5438 14.4043L31.687 12.358C31.7367 11.6489 31.8488 10.9417 32.0988 10.2763C33.3602 6.9185 35.5988 5.02913 37.5794 3.73145C40.2944 1.95265 44.1729 1.06325 45.7243 1.06325C47.2757 1.06325 51.5421 0.173841 57.3598 5.06554C58.83 6.30167 59.944 8.17335 60.4626 9.51256C61.2637 11.5814 61.5685 13.5324 61.3712 14.7623C64.5932 15.587 68.3391 16.5845 70.1589 17.0725C71.0002 17.2981 74.3411 18.7219 75.9766 19.7407C77.7296 20.8326 79.6262 22.1965 80.8623 22.959C80.921 22.9923 80.9732 23.0241 81.0187 23.0544C82.5701 24.0873 87.7414 26.6407 88 27.7883C87.8707 29.3663 87.6122 30.0405 86.0607 32.1923C85.3339 33.2004 83.3458 34.9179 78.3037 36.6393C78.1699 36.685 78.0407 36.7295 77.9159 36.773C73.3383 38.3669 74.6381 38.4954 68.2196 39.7522C64.1086 40.5572 61.9577 40.8937 60.0748 41.1373L75.5888 86.8904C74.8131 88.2245 74.4252 89.1139 71.3224 91.3374C70.9625 91.5954 67.8318 93.4546 65.8925 93.9366C63.1776 94.8951 63.5654 94.8951 60.8505 95.7845C60.6557 95.8482 57.2103 96.6935 55.8084 96.9178C53.3624 97.3092 49.4653 97.6764 46.5 97.9775C44.6552 98.1649 38.3551 97.1186 37.5794 97.1186C35.7505 97.1186 29.4346 94.8951 26.8632 93.561C26.6287 93.5293 23.3365 91.3991 23.229 91.3374C21.6776 90.448 20.1262 89.2622 17.7991 86.8904L32.9252 41.7104C31.2487 41.4565 29.5449 41.1245 27.8832 40.699C23.9236 39.6851 19.4856 38.6712 16.6355 37.8657C15.8564 37.6455 15.1959 37.4409 14.6963 37.2561C12.3692 36.3954 8.49065 33.3829 7.3271 32.5222L5 29.5097V27.7883Z" fill="black"/>
<path d="M5 27.7883C6.16355 26.4972 9.47763 24.4804 12.3692 23.0544M5 27.7883V29.5097L7.3271 32.5222C8.49065 33.3829 12.3692 36.3954 14.6963 37.2561C15.1959 37.4409 15.8564 37.6455 16.6355 37.8657M5 27.7883L8.49065 30.4135C9.86776 31.1164 13.5798 32.7557 14.3084 32.7557M12.3692 23.0544C14.0498 21.8207 17.4112 19.7407 18.1869 19.296C18.6973 19.0034 22.8544 17.0699 26.7196 15.7384C28.478 15.1326 30.2305 14.6953 31.5438 14.4043M12.3692 23.0544C13.6452 22.4251 15.4495 21.6786 17.4112 20.9434M46.8879 15.7384V26.4112M46.8879 15.7384C43.7966 15.7384 36.8366 16.4162 31.7617 17.117M46.8879 15.7384C49.9121 15.7384 56.4079 15.9546 61.6262 17.0099M81.0187 23.0544C82.5701 24.0873 87.7414 26.6407 88 27.7883M81.0187 23.0544C79.7903 22.3148 77.8053 20.8798 75.9766 19.7407C74.3411 18.7219 71.0002 17.2981 70.1589 17.0725C67.0561 16.2405 58.3536 13.9271 56.1963 13.5149C53.8692 13.0702 50.0222 12.8104 45.7243 12.6255C40.7158 12.41 35.4462 13.5149 33.7009 13.9596C33.5337 14.0022 32.7127 14.1452 31.5438 14.4043M81.0187 23.0544C80.3906 22.6362 78.4696 21.9217 75.9766 21.1052M88 27.7883C87.8707 29.3663 87.6121 30.0405 86.0607 32.1923C85.3339 33.2004 83.3458 34.9179 78.3037 36.6393C78.1699 36.685 78.0407 36.7295 77.9159 36.773M88 27.7883L85.9417 29.3363C84.9943 30.0487 83.9279 30.5871 82.792 30.9262L78.5514 32.1923M46.5 32.5222C46.2658 32.5222 45.2185 32.5732 43.785 32.6811M46.5 32.5222V97.9775M46.5 32.5222C46.6593 32.5222 47.7344 32.5416 49.215 32.626M59.2991 39.3075C60.0748 39.3075 63.5654 37.9734 63.5654 36.6393C63.5654 35.5264 59.237 34.2255 57.3598 33.7234M59.2991 39.3075L57.3598 33.7234M59.2991 39.3075L60.0748 41.1373M33.7009 39.3075C32.5374 39.1593 30.5206 37.7066 30.2103 36.6393C30.2103 36.1946 30.8102 35.3252 32.9252 34.4158C33.6591 34.1003 34.7618 33.828 36.028 33.5963M33.7009 39.3075L36.028 33.5963M33.7009 39.3075L32.9252 41.7104M16.6355 37.8657C19.4856 38.6712 23.9236 39.6851 27.8832 40.699C29.5449 41.1245 31.2487 41.4565 32.9252 41.7104M16.6355 37.8657L15.0841 36.6393L13.9206 34.8605C13.5327 33.5264 14.7738 31.4808 16.6355 30.4135C18.9626 29.0794 26.0036 27.7225 27.1075 27.3006C27.7286 27.0632 31.4353 26.6991 35.1152 26.4112M77.9159 36.773C73.3383 38.3669 74.6381 38.4954 68.2196 39.7522C64.1086 40.5572 61.9577 40.8937 60.0748 41.1373M77.9159 36.773L78.9665 35.2551C79.5451 34.419 79.7143 33.4229 79.0248 32.6756C78.8811 32.5199 78.7224 32.3579 78.5514 32.1923M32.9252 41.7104L17.7991 86.8904C20.1262 89.2622 21.6776 90.448 23.229 91.3374C23.3365 91.3991 26.6287 93.5293 26.8632 93.5609M37.5794 97.1186C35.7505 97.1186 29.4346 94.8951 26.8632 93.5609M37.5794 97.1186L43.785 32.6811M37.5794 97.1186C38.3551 97.1186 44.6552 98.1649 46.5 97.9775M60.0748 41.1373L75.5888 86.8904C74.8131 88.2245 74.4252 89.1139 71.3224 91.3374C70.9625 91.5954 67.8318 93.4546 65.8925 93.9366M57.3598 33.7234C56.9866 33.6236 56.7103 33.5553 56.5841 33.5264C55.6277 33.3071 54.5533 33.1348 53.4716 32.9998M36.028 33.5963C37.3497 33.3545 38.8497 33.1567 40.2944 32.9998M40.2944 32.9998L26.8632 93.5609M40.2944 32.9998C41.5509 32.8634 42.7656 32.7579 43.785 32.6811M46.5 97.9775C49.4653 97.6764 53.3624 97.3092 55.8084 96.9178M49.215 32.626L55.8084 96.9178M49.215 32.626C50.4504 32.6965 51.9682 32.8122 53.4716 32.9998M55.8084 96.9178C57.2103 96.6935 60.6557 95.8482 60.8505 95.7845C63.5654 94.8951 63.1776 94.8951 65.8925 93.9366M53.4716 32.9998L65.8925 93.9366M31.5438 14.4043L31.687 12.358C31.7367 11.6489 31.8488 10.9417 32.0988 10.2763C33.3602 6.9185 35.5988 5.02913 37.5794 3.73145C40.2944 1.95265 44.1729 1.06325 45.7243 1.06325C47.2757 1.06325 51.5421 0.173841 57.3598 5.06554C58.83 6.30167 59.944 8.17335 60.4626 9.51256C61.3916 11.9116 61.6532 14.1521 61.2383 15.2937M17.4112 20.9434C20.8159 19.6675 24.6945 18.4256 27.1075 17.8901C28.1758 17.6531 29.8325 17.3833 31.7617 17.117M17.4112 20.9434C17.4112 21.4319 17.4888 22.5867 17.7991 23.2983C18.1869 24.1877 18.9626 25.0771 19.7383 25.9665C20.3589 26.678 21.8069 28.0417 22.4533 28.6347M31.7617 17.117C31.7617 17.6951 32.615 21.2526 32.9252 21.9642C33.3131 22.8536 35.3658 26.8559 35.1152 26.4112M35.1152 26.4112C38.3287 26.1598 41.5217 25.9665 42.6215 25.9665C43.542 25.9665 51.0165 25.9665 57.7477 26.4068M61.6262 17.0099C62.2971 17.1455 62.9468 17.2951 63.5654 17.4598C67.4123 18.4842 72.3124 19.905 75.9766 21.1052M61.6262 17.0099C61.6262 17.9201 61.2383 18.8513 60.8505 20.1854C60.7544 20.5157 60.048 22.0223 59.4936 23.4101C59.0625 24.4892 58.5129 25.5323 57.7477 26.4068V26.4068M57.7477 26.4068C59.5249 26.5231 61.2504 26.6701 62.7897 26.8559C64.3027 27.0385 67.4127 27.3554 70.1589 27.9153M75.9766 21.1052C75.8474 21.688 75.2009 23.0544 74.8131 23.743C74.2179 24.7996 71.7103 28.174 71.3224 28.174C71.0121 28.174 70.4174 27.7104 70.1589 27.9153M70.1589 27.9153C71.6712 28.2236 73.0732 28.6056 74.0374 29.0794C75.4619 29.6238 77.3225 31.0015 78.5514 32.1923" stroke="white"/>
<ellipse cx="4.63886" cy="2.60745" rx="4.63886" ry="2.60745" transform="matrix(0.875517 -0.483186 0.387077 0.922048 35.2523 6.75841)" fill="white"/>
<ellipse cx="46.5" cy="9.06785" rx="1.16355" ry="1.3341" fill="white"/>
</g>
<defs>
<filter id="filter0_d_4_59" x="0.5" y="0.500183" width="92.0046" height="106" filterUnits="userSpaceOnUse" color-interpolation-filters="sRGB">
<feFlood flood-opacity="0" result="BackgroundImageFix"/>
<feColorMatrix in="SourceAlpha" type="matrix" values="0 0 0 0 0 0 0 0 0 0 0 0 0 0 0 0 0 0 127 0" result="hardAlpha"/>
<feOffset dy="4"/>
<feGaussianBlur stdDeviation="2"/>
<feComposite in2="hardAlpha" operator="out"/>
<feColorMatrix type="matrix" values="0 0 0 0 0 0 0 0 0 0 0 0 0 0 0 0 0 0 0.25 0"/>
<feBlend mode="normal" in2="BackgroundImageFix" result="effect1_dropShadow_4_59"/>
<feBlend mode="normal" in="SourceGraphic" in2="effect1_dropShadow_4_59" result="shape"/>
</filter>
</defs>
</svg>
